<?xml version="1.0" encoding="UTF-8"?>
<svg version="1.1" xmlns="http://www.w3.org/2000/svg" width="612" height="408">
<path d="M0 0 C0.99 0 1.98 0 3 0 C2.40132817 4.6414675 1.12216806 8.50444506 -0.6875 12.8125 C-3.280991 19.08803983 -5.60220849 25.42240677 -7.80151367 31.84594727 C-9.65976529 37.21292423 -11.85313729 42.36070269 -14.3125 47.484375 C-15.41183967 51.50695878 -13.67114559 53.8153876 -11.703125 57.2890625 C-11.22359375 58.05992187 -10.7440625 58.83078125 -10.25 59.625 C-0.67029224 75.34134208 6.70585153 91.61257122 9 110 C9.391875 109.113125 9.78375 108.22625 10.1875 107.3125 C12.4276982 103.21834467 14.82830044 100.02197626 19.125 98 C21 98 21 98 22.6875 99.0625 C24.59343497 101.87602306 24.93648039 103.56994131 25 107 C23.9059448 110.12879337 22.52285869 113.05885661 21 116 C20.34 116 19.68 116 19 116 C18.9175 116.5775 18.835 117.155 18.75 117.75 C18 120 18 120 15.96875 121.65625 C13.25489278 124.8870324 13.55292372 127.74025578 13.75 131.75 C13.76804687 132.44738281 13.78609375 133.14476562 13.8046875 133.86328125 C13.85161446 135.57611539 13.92335395 137.28823824 14 139 C22.04287973 133.38868856 24.80135082 124.95621769 28 116 C28.33 115.34 28.66 114.68 29 114 C32.875 114.875 32.875 114.875 34 116 C33.70241581 118.3381615 33.36760731 120.67182036 33 123 C33 123.66 33 124.32 33 125 C33.99 125 34.98 125 36 125 C36.99 127.475 36.99 127.475 38 130 C44.63703928 121.61336871 45.59144789 113.48177094 45 103 C46.32 102.67 47.64 102.34 49 102 C51.75668002 105.95523655 52.5317879 109.22423661 53 114 C53.804375 113.195625 54.60875 112.39125 55.4375 111.5625 C59 108 59 108 60.84765625 107.90234375 C62.8984375 107.93489583 64.94921875 107.96744792 67 108 C67.07347656 107.12601563 67.07347656 107.12601563 67.1484375 106.234375 C68.90779375 86.94212369 74.33237887 69.10110203 81 51 C82.65 51.33 84.3 51.66 86 52 C87.63421014 57.00288872 86.21557518 60.94570509 84.8125 65.8125 C84.33901071 67.52971844 83.86636636 69.24717006 83.39453125 70.96484375 C83.15686035 71.81804199 82.91918945 72.67124023 82.67431641 73.55029297 C81.19294746 78.93192077 79.87619037 84.35500334 78.54882812 89.77636719 C77.92241946 92.31432544 77.2807231 94.84827365 76.640625 97.3828125 C76.17653037 99.25507135 75.71298375 101.12746613 75.25 103 C75.02699219 103.87253418 74.80398437 104.74506836 74.57421875 105.64404297 C72.30621236 114.41074439 72.30621236 114.41074439 74 123 C74.99 123 75.98 123 77 123 C77.19335938 122.41992188 77.38671875 121.83984375 77.5859375 121.2421875 C78.12747473 119.61757582 78.67189907 117.99392452 79.21875 116.37109375 C79.81129293 114.57272594 80.3548234 112.75811808 80.875 110.9375 C82.38344845 106.9987735 84.3744069 103.31565282 87 100 C87.66 100 88.32 100 89 100 C89.33 99.01 89.66 98.02 90 97 C94.875 98.875 94.875 98.875 96 100 C96.07313567 102.53049402 96.09247527 105.03304837 96.0625 107.5625 C96.05798828 108.27341797 96.05347656 108.98433594 96.04882812 109.71679688 C96.03700864 111.47790013 96.01907263 113.23896036 96 115 C99.06107976 114.34188953 99.06107976 114.34188953 100.07568359 112.20043945 C102.92009158 104.99856255 104.360851 97.80981947 105.625 90.1875 C106.02908715 87.8051761 106.43776592 85.42362538 106.8515625 83.04296875 C107.02510254 82.00164795 107.19864258 80.96032715 107.37744141 79.88745117 C107.98234471 77.08188595 108.85205083 74.62470335 110 72 C111.65 72.33 113.3 72.66 115 73 C114.0008524 79.97052383 112.84455385 86.86190162 111.375 93.75 C110.22504695 99.32640548 109.70118346 104.32248566 110 110 C113.92238427 100.07776311 116.24325488 90.49571286 118 80 C118.53878184 76.91314465 119.15150776 74.02275359 120 71 C120.99 70.67 121.98 70.34 123 70 C123.66 70.33 124.32 70.66 125 71 C124.9278125 71.63164062 124.855625 72.26328125 124.78125 72.9140625 C124.09143042 79.56315674 123.96967419 86.05617066 124.16015625 92.73828125 C123.99126951 96.17780392 123.13613234 98.76843293 122 102 C121.76289068 104.28435145 121.76289068 104.28435145 121.875 106.375 C121.91625 107.57125 121.9575 108.7675 122 110 C122.99 110.33 123.98 110.66 125 111 C125 112.65 125 114.3 125 116 C122.36 116 119.72 116 117 116 C116.34 114.68 115.68 113.36 115 112 C114.01 113.98 114.01 113.98 113 116 C112.38511719 115.95359375 111.77023437 115.9071875 111.13671875 115.859375 C108.70390877 115.75073277 106.41889527 115.70416389 104 116 C102.9739266 117.31337396 101.97272675 118.64664105 101 120 C98.25401981 120.38901386 95.79352259 120.17736651 93 120 C92.34 120 91.68 120 91 120 C90.401875 120.9075 89.80375 121.815 89.1875 122.75 C85.59464627 128.08795411 85.59464627 128.08795411 82 130 C77.61342225 130.08900303 72.9733999 129.98669995 69 128 C69 127.34 69 126.68 69 126 C64.96282223 127.34572592 63.37468459 130.03113603 61.1484375 133.44140625 C60 135 60 135 58 136 C54.5 136.1875 54.5 136.1875 51 136 C47.99382731 132.99382731 48.40414684 130.17618402 48 126 C47.608125 126.9075 47.21625 127.815 46.8125 128.75 C44.84854809 132.27156893 43.46171251 133.95444261 40 136 C36.4375 136.1875 36.4375 136.1875 33 136 C32.278125 136.185625 31.55625 136.37125 30.8125 136.5625 C28.57689257 137.10212938 27.18700806 136.61127554 25 136 C24.54109375 136.5775 24.0821875 137.155 23.609375 137.75 C22.99578125 138.4925 22.3821875 139.235 21.75 140 C21.14671875 140.7425 20.5434375 141.485 19.921875 142.25 C18 144 18 144 14 144 C13.67 145.65 13.34 147.3 13 149 C12.278125 148.731875 11.55625 148.46375 10.8125 148.1875 C9.884375 148.125625 8.95625 148.06375 8 148 C7.2575 148.825 6.515 149.65 5.75 150.5 C2.85008821 153.13628344 2.43465651 153.46455762 -1.25 153.375 C-9.48555765 151.91363239 -14.35671518 143.87751705 -19.1875 137.6875 C-23.33573714 132.43712543 -23.33573714 132.43712543 -29 129 C-32.69376535 128.70285938 -36.30448664 128.76327672 -40 129 C-42.26948177 134.01122564 -43.92475212 138.95129532 -45.375 144.25 C-51.83000758 166.88667172 -51.83000758 166.88667172 -61 173 C-64.6875 172.625 -64.6875 172.625 -68 172 C-70.94835903 163.15492292 -68.0399387 154.73342361 -64.0625 146.75 C-60.62335671 140.52334057 -56.42659948 135.7130788 -51.453125 130.65625 C-47.08817426 125.92987021 -44.92604182 121.30709567 -44 115 C-44.16176966 111.19841298 -45.25099966 108.34487658 -46.828125 104.9453125 C-54.13720895 88.67017756 -58.03925782 72.51696152 -58.3125 54.6875 C-58.33046631 53.86306396 -58.34843262 53.03862793 -58.36694336 52.18920898 C-58.35607152 44.98263171 -57.20015105 38.57578659 -52.4375 33 C-48.77370636 29.99381035 -48.77370636 29.99381035 -46.046875 30.015625 C-44.90992188 30.13164063 -44.90992188 30.13164063 -43.75 30.25 C-43.00234375 30.31703125 -42.2546875 30.3840625 -41.484375 30.453125 C-35.27332445 31.82033739 -31.18407944 35.34689321 -26.75 39.625 C-23.17478033 43.21746776 -23.17478033 43.21746776 -19 46 C-18.61585938 44.79214844 -18.23171875 43.58429688 -17.8359375 42.33984375 C-15.71045847 35.96963609 -13.16422089 29.77672842 -10.625 23.5625 C-10.15578125 22.39912109 -9.6865625 21.23574219 -9.203125 20.03710938 C-6.41662457 13.19786729 -3.42692389 6.54290346 0 0 Z M-48.875 35.875 C-54.19997367 41.19997367 -54.6923866 47.8100235 -55 55 C-54.85503882 58.35164813 -54.44198832 61.62238151 -53.9375 64.9375 C-53.804646 65.83629883 -53.67179199 66.73509766 -53.53491211 67.66113281 C-51.55652704 79.9466997 -48.0126389 93.01469678 -42 104 C-41.34 104.33 -40.68 104.66 -40 105 C-39.40742187 103.22226562 -38.8148682 101.4445231 -38.22241211 99.66674805 C-37.69106292 98.07303103 -37.15931296 96.47944758 -36.62719727 94.88598633 C-35.1484254 90.45564557 -33.67700945 86.02307563 -32.21875 81.5859375 C-29.04562075 71.95539472 -25.78837017 62.40982269 -22 53 C-32.93380426 38.96057494 -32.93380426 38.96057494 -48.875 35.875 Z M-18 58 C-21.52486107 65.44044967 -24.1965318 73.09678735 -26.78173828 80.89916992 C-27.49132086 83.03635932 -28.21195514 85.16959035 -28.93359375 87.30273438 C-31.31012828 94.39178242 -33.51485843 101.5112492 -35.40625 108.74609375 C-35.73947266 110.02025146 -36.07269531 111.29440918 -36.41601562 112.60717773 C-36.97527057 115.85632739 -36.91718032 117.86941261 -36 121 C-37.98 121.495 -37.98 121.495 -40 122 C-40 122.33 -40 122.66 -40 123 C-39.154375 123.00257813 -38.30875 123.00515625 -37.4375 123.0078125 C-29.44702641 123.28021501 -24.62174424 124.22374693 -19 130 C-16.83153019 132.37333415 -14.71494187 134.76642475 -12.6640625 137.2421875 C-11.84035156 138.11230469 -11.84035156 138.11230469 -11 139 C-10.34 139 -9.68 139 -9 139 C-8.34 140.32 -7.68 141.64 -7 143 C-6.34 143 -5.68 143 -5 143 C-4.7525 143.639375 -4.505 144.27875 -4.25 144.9375 C-3.18437567 147.18741541 -3.18437567 147.18741541 -0.875 147.75 C-0.25625 147.8325 0.3625 147.915 1 148 C1.99 145.69 2.98 143.38 4 141 C3.07960938 140.63261719 3.07960938 140.63261719 2.140625 140.2578125 C-0.42635567 138.74947715 -1.03857904 137.55743212 -2.25 134.875 C-2.58515625 134.15054688 -2.9203125 133.42609375 -3.265625 132.6796875 C-3.50796875 132.12539062 -3.7503125 131.57109375 -4 131 C-3.34 131 -2.68 131 -2 131 C0.81763407 128.18236593 1.94608803 126.71433365 2.25 122.6875 C2.1675 121.800625 2.085 120.91375 2 120 C2.99 119.67 3.98 119.34 5 119 C4.48367959 111.1127607 2.95270356 103.64966881 1 96 C0.79632813 95.15566406 0.59265625 94.31132812 0.3828125 93.44140625 C-2.68219904 81.91923322 -9.23887911 71.3404734 -15 61 C-15.66 61 -16.32 61 -17 61 C-17.33 60.01 -17.66 59.02 -18 58 Z M18 105 C14.72962401 108.27037599 14.43143987 111.5130254 14 116 C18.0042343 112.50912907 19.62671065 110.35048061 20 105 C19.34 105 18.68 105 18 105 Z M90 105 C86.93757784 109.84060277 85.46588495 113.29290936 85 119 C89.4114727 115.76492002 89.84694558 112.15442808 90.703125 107.046875 C90.80109375 106.37140625 90.8990625 105.6959375 91 105 C90.67 105 90.34 105 90 105 Z M61 114 C56.03899687 118.36423675 56.03899687 118.36423675 53.8046875 124.26171875 C53.82789063 125.06222656 53.85109375 125.86273438 53.875 126.6875 C53.89304687 127.49574219 53.91109375 128.30398437 53.9296875 129.13671875 C53.95289063 129.75160156 53.97609375 130.36648437 54 131 C54.99 131 55.98 131 57 131 C57.33 129.68 57.66 128.36 58 127 C58.66 127 59.32 127 60 127 C60.86646667 125.56988027 61.71781829 124.13059381 62.5625 122.6875 C63.03816406 121.88699219 63.51382813 121.08648437 64.00390625 120.26171875 C65.342681 117.90841521 65.342681 117.90841521 64 115 C63.01 115.495 63.01 115.495 62 116 C61.67 115.34 61.34 114.68 61 114 Z M4 131 C3.30840599 132.84725052 3.30840599 132.84725052 3 135 C3.99 136.485 3.99 136.485 5 138 C5 135.69 5 133.38 5 131 C4.67 131 4.34 131 4 131 Z M-50 135 C-57.54574311 142.79131463 -64.76431523 152.69377227 -65.125 163.875 C-65.08375 164.90625 -65.0425 165.9375 -65 167 C-63.06438598 166.79734698 -63.06438598 166.79734698 -61 166 C-56.85125973 160.46398381 -54.69016141 152.96421729 -52.125 146.5625 C-51.80233154 145.7691626 -51.47966309 144.9758252 -51.1472168 144.15844727 C-50.85371338 143.40619873 -50.56020996 142.6539502 -50.2578125 141.87890625 C-49.9911377 141.2041626 -49.72446289 140.52941895 -49.44970703 139.83422852 C-48.77496291 137.78672053 -48.77496291 137.78672053 -50 135 Z M9 141 C10 143 10 143 10 143 Z M8 143 C9 145 9 145 9 145 Z " fill="#D0D0D0" transform="translate(166,96)"/>
<path d="M0 0 C3.7339749 3.34092491 4.38415852 6.1649679 5 11 C5.07229634 12.85474876 5.09820103 14.71178642 5.08178711 16.56787109 C5.0752562 17.63693695 5.06872528 18.70600281 5.06199646 19.8074646 C5.05056107 20.95123566 5.03912567 22.09500671 5.02734375 23.2734375 C5.01468465 25.73307144 5.00232465 28.19270694 4.99023438 30.65234375 C4.96556959 34.50053852 4.9377306 38.34865053 4.90405273 42.19677734 C4.56021573 66.78154857 4.56021573 66.78154857 8.9375 90.875 C9.29070312 92.11121094 9.64390625 93.34742188 10.0078125 94.62109375 C10.49894531 96.29365234 10.49894531 96.29365234 11 98 C11.22429687 98.85722656 11.44859375 99.71445313 11.6796875 100.59765625 C15.95815254 116.41741278 23.31138201 132.7401231 37.6171875 141.73046875 C45.83908976 146.11099045 56.48124383 146.39542124 65.5 144.46484375 C69.92494049 142.88327322 73.99037288 140.42248305 78 138 C78.75 139.75 78.75 139.75 79 142 C75.09952443 147.67341902 67.41280649 149.85232449 61 151.375 C50.35029252 153.02263407 38.89360055 151.77325294 29.9609375 145.5234375 C29.31382812 145.02070313 28.66671875 144.51796875 28 144 C26.453125 142.88625 26.453125 142.88625 24.875 141.75 C24.25625 141.1725 23.6375 140.595 23 140 C23 139.34 23 138.68 23 138 C22.34 138 21.68 138 21 138 C-0.56508026 112.76284725 -5.02210803 71.44431961 -2.765625 39.703125 C-2.58693767 37.50632194 -2.40590693 35.30970836 -2.22265625 33.11328125 C-1.6030414 23.77532105 -1.92507474 14.35297768 -2 5 C-6.73277293 6.33932031 -6.73277293 6.33932031 -10.25 9.6875 C-14.05169885 16.88357281 -14.33849069 23.30217084 -14.3125 31.3125 C-14.32861328 32.29412109 -14.34472656 33.27574219 -14.36132812 34.28710938 C-14.36455195 39.15831496 -14.06314377 43.32060868 -12.49609375 47.94921875 C-10.53489993 53.79783094 -10.63005511 59.38281072 -10.75 65.5 C-10.75515625 66.5828125 -10.7603125 67.665625 -10.765625 68.78125 C-10.84470663 76.68941327 -10.84470663 76.68941327 -12 79 C-17.44927536 80.27536232 -17.44927536 80.27536232 -20 79 C-20.72693904 77.02111039 -21.39816251 75.02045442 -22 73 C-22.59167969 73.28875 -23.18335938 73.5775 -23.79296875 73.875 C-29.3596867 76.49035852 -32.96929379 78.0102354 -39 76 C-40.66621616 75.96125079 -42.33394172 75.9549714 -44 76 C-44.33 76.99 -44.66 77.98 -45 79 C-45.66 79 -46.32 79 -47 79 C-47 79.66 -47 80.32 -47 81 C-49.78863007 82.39431504 -51.92078868 82.25660094 -55 82 C-57.4972176 78.25417361 -57.61925767 75.33480369 -57 71 C-55.12390051 65.20114702 -52.17866973 61.18687368 -47 58 C-44.19038686 57.6094942 -41.8566123 57.75374032 -39 58 C-38.67 59.32 -38.34 60.64 -38 62 C-37.01 61.34 -36.02 60.68 -35 60 C-34 61 -34 61 -33.90234375 63.28515625 C-33.91394531 64.20167969 -33.92554688 65.11820312 -33.9375 66.0625 C-33.94652344 66.98160156 -33.95554687 67.90070313 -33.96484375 68.84765625 C-33.97644531 69.55792969 -33.98804688 70.26820313 -34 71 C-31.08039962 71 -29.548017 69.40264614 -27.3984375 67.578125 C-25.0866438 64.96928518 -24.66296019 62.38109697 -24 59 C-22.35 59 -20.7 59 -19 59 C-18.93941406 59.78246094 -18.87882812 60.56492188 -18.81640625 61.37109375 C-18.73261719 62.38300781 -18.64882813 63.39492187 -18.5625 64.4375 C-18.48128906 65.44683594 -18.40007812 66.45617187 -18.31640625 67.49609375 C-18.26788532 69.93640779 -18.26788532 69.93640779 -17 71 C-15.76564611 67.27837662 -16.03959498 63.94426842 -16.3125 60.0625 C-16.35882568 59.39645752 -16.40515137 58.73041504 -16.45288086 58.04418945 C-16.77101398 53.87272481 -17.32830196 49.80949758 -18.0625 45.6875 C-20.02719424 33.60165361 -21.52219568 17.09155061 -14.3125 6.52734375 C-9.83118751 1.23379338 -7.21255472 -0.74612635 0 0 Z M-47 64 C-49.74522883 68.42778844 -51.48474397 71.71862571 -52 77 C-49.99490532 76.39582098 -49.99490532 76.39582098 -48 75 C-46.8658597 72.37372009 -46.8658597 72.37372009 -46.25 69.375 C-46.00765625 68.37210937 -45.7653125 67.36921875 -45.515625 66.3359375 C-45.34546875 65.56507813 -45.1753125 64.79421875 -45 64 C-45.66 64 -46.32 64 -47 64 Z M-40 65 C-39 67 -39 67 -39 67 Z M-41 67 C-40 70 -40 70 -40 70 Z " fill="#D6D6D6" transform="translate(349,125)"/>
<path d="M0 0 C2.475 0.495 2.475 0.495 5 1 C6.63421014 6.00288872 5.21557518 9.94570509 3.8125 14.8125 C3.33901071 16.52971844 2.86636636 18.24717006 2.39453125 19.96484375 C2.0380249 21.24464111 2.0380249 21.24464111 1.67431641 22.55029297 C0.19294746 27.93192077 -1.12380963 33.35500334 -2.45117188 38.77636719 C-3.07758054 41.31432544 -3.7192769 43.84827365 -4.359375 46.3828125 C-4.82346963 48.25507135 -5.28701625 50.12746613 -5.75 52 C-5.97300781 52.87253418 -6.19601563 53.74506836 -6.42578125 54.64404297 C-8.69378764 63.41074439 -8.69378764 63.41074439 -7 72 C-6.01 72 -5.02 72 -4 72 C-3.80664062 71.41992188 -3.61328125 70.83984375 -3.4140625 70.2421875 C-2.87252527 68.61757582 -2.32810093 66.99392452 -1.78125 65.37109375 C-1.18870707 63.57272594 -0.6451766 61.75811808 -0.125 59.9375 C1.38344845 55.9987735 3.3744069 52.31565282 6 49 C6.66 49 7.32 49 8 49 C8.33 48.01 8.66 47.02 9 46 C13.875 47.875 13.875 47.875 15 49 C15.07313567 51.53049402 15.09247527 54.03304837 15.0625 56.5625 C15.05798828 57.27341797 15.05347656 57.98433594 15.04882812 58.71679688 C15.03700864 60.47790013 15.01907263 62.23896036 15 64 C18.06107976 63.34188953 18.06107976 63.34188953 19.07568359 61.20043945 C21.92009158 53.99856255 23.360851 46.80981947 24.625 39.1875 C25.02908715 36.8051761 25.43776592 34.42362538 25.8515625 32.04296875 C26.11187256 30.48098755 26.11187256 30.48098755 26.37744141 28.88745117 C26.98234471 26.08188595 27.85205083 23.62470335 29 21 C30.65 21.33 32.3 21.66 34 22 C33.0008524 28.97052383 31.84455385 35.86190162 30.375 42.75 C29.22504695 48.32640548 28.70118346 53.32248566 29 59 C32.92238427 49.07776311 35.24325488 39.49571286 37 29 C37.53878184 25.91314465 38.15150776 23.02275359 39 20 C39.99 19.67 40.98 19.34 42 19 C42.66 19.33 43.32 19.66 44 20 C43.9278125 20.63164062 43.855625 21.26328125 43.78125 21.9140625 C43.09143042 28.56315674 42.96967419 35.05617066 43.16015625 41.73828125 C42.99126951 45.17780392 42.13613234 47.76843293 41 51 C40.76289068 53.28435145 40.76289068 53.28435145 40.875 55.375 C40.91625 56.57125 40.9575 57.7675 41 59 C41.99 59.33 42.98 59.66 44 60 C44 61.65 44 63.3 44 65 C41.36 65 38.72 65 36 65 C35.34 63.68 34.68 62.36 34 61 C33.34 62.32 32.68 63.64 32 65 C31.38511719 64.95359375 30.77023437 64.9071875 30.13671875 64.859375 C27.70390877 64.75073277 25.41889527 64.70416389 23 65 C21.9739266 66.31337396 20.97272675 67.64664105 20 69 C17.25401981 69.38901386 14.79352259 69.17736651 12 69 C11.34 69 10.68 69 10 69 C9.401875 69.9075 8.80375 70.815 8.1875 71.75 C4.59464627 77.08795411 4.59464627 77.08795411 1 79 C-3.38657775 79.08900303 -8.0266001 78.98669995 -12 77 C-12 76.34 -12 75.68 -12 75 C-12.99 74.67 -13.98 74.34 -15 74 C-15 73.34 -15 72.68 -15 72 C-15.495 72.99 -15.495 72.99 -16 74 C-16.66 74 -17.32 74 -18 74 C-17.34 70.7 -16.68 67.4 -16 64 C-16.66 64 -17.32 64 -18 64 C-18 63.34 -18 62.68 -18 62 C-18.66 62 -19.32 62 -20 62 C-20 60.35 -20 58.7 -20 57 C-18.02 57 -16.04 57 -14 57 C-13.95101562 56.41734375 -13.90203125 55.8346875 -13.8515625 55.234375 C-12.09220625 35.94212369 -6.66762113 18.10110203 0 0 Z M9 54 C5.93757784 58.84060277 4.46588495 62.29290936 4 68 C8.4114727 64.76492002 8.84694558 61.15442808 9.703125 56.046875 C9.80109375 55.37140625 9.8990625 54.6959375 10 54 C9.67 54 9.34 54 9 54 Z " fill="#C2C2C2" transform="translate(247,147)"/>
<path d="M0 0 C1.32 0 2.64 0 4 0 C9.34263553 10.68527107 2.86171932 32.03007595 0 43 C3.13328122 41.95557293 4.04196922 41.55395319 6 39 C6.28875 37.9275 6.5775 36.855 6.875 35.75 C8.21993046 31.26689847 10.14878958 28.6765608 13 25 C14.65 25.33 16.3 25.66 18 26 C16.94513949 32.12096691 15.34782974 36.75506674 12 42 C14.64 42 17.28 42 20 42 C20.33 42.66 20.66 43.32 21 44 C19.61457684 47.62848922 18.15648338 50.76527494 16 54 C16.61101562 53.82984375 17.22203125 53.6596875 17.8515625 53.484375 C41.71416927 47.1658256 67.32373606 42.74550646 92 42 C91.375 43.875 91.375 43.875 90 46 C85.33402463 48.09651238 80.33716042 48.70040497 75.3125 49.4375 C73.6080709 49.69790348 71.90364387 49.95832052 70.19921875 50.21875 C68.46617604 50.47936763 66.73310366 50.73978804 65 51 C54.90572719 52.52800386 44.84430826 54.16265676 34.8125 56.0625 C33.95156738 56.22484131 33.09063477 56.38718262 32.20361328 56.55444336 C28.34203245 57.29798459 24.53126863 58.10200179 20.73046875 59.11328125 C17.46713277 59.88896425 14.82749414 60.21743039 11.5 60.125 C10.6440625 60.10695312 9.788125 60.08890625 8.90625 60.0703125 C8.2771875 60.04710937 7.648125 60.02390625 7 60 C6.75751375 57.07500966 6.68773358 55.48048137 8.3125 52.98046875 C9.1478125 52.09294922 9.1478125 52.09294922 10 51.1875 C10.556875 50.58292969 11.11375 49.97835937 11.6875 49.35546875 C12.120625 48.90816406 12.55375 48.46085937 13 48 C10.1628485 46.80404463 10.1628485 46.80404463 7 46 C6.01 46.66 5.02 47.32 4 48 C-1.34545455 48.32727273 -1.34545455 48.32727273 -4 47 C-4.33 47.99 -4.66 48.98 -5 50 C-8.71599191 50.20086443 -9.77208445 50.1519437 -13 48 C-13.556875 48.474375 -14.11375 48.94875 -14.6875 49.4375 C-17.25816441 51.17443541 -18.95047161 51.56435309 -22 52 C-23.03125 52.20625 -24.0625 52.4125 -25.125 52.625 C-28 53 -28 53 -31 52 C-32.66790422 45.60636714 -31.31905472 40.7011991 -28 35 C-25.14395086 32.33084978 -24.29991708 32.01499585 -20.25 31.8125 C-19.1775 31.874375 -18.105 31.93625 -17 32 C-16.06576355 35.01031744 -15.95550089 35.86650268 -17 39 C-16.12085312 41.6569191 -16.12085312 41.6569191 -15 44 C-14.34 44 -13.68 44 -13 44 C-12.9071875 42.453125 -12.9071875 42.453125 -12.8125 40.875 C-11.80167914 36.05416204 -10.48427245 34.40131359 -7 31 C-6.01 31 -5.02 31 -4 31 C-3.91435791 30.13197754 -3.82871582 29.26395508 -3.74047852 28.36962891 C-3.42119725 25.15267077 -3.09839679 21.93609099 -2.77319336 18.71972656 C-2.63310553 17.32696461 -2.49442592 15.93406027 -2.35717773 14.54101562 C-2.15978375 12.53999649 -1.95692288 10.539519 -1.75390625 8.5390625 C-1.63345947 7.33459473 -1.5130127 6.13012695 -1.38891602 4.88916016 C-1 2 -1 2 0 0 Z M-23 38 C-25.35910353 42.2637281 -25.35910353 42.2637281 -26 47 C-25.34 47 -24.68 47 -24 47 C-22.68 44.36 -21.36 41.72 -20 39 C-20.99 38.67 -21.98 38.34 -23 38 Z M-7 40 C-6 42 -6 42 -6 42 Z " fill="#DEDEDE" transform="translate(428,133)"/>
<path d="M0 0 C0.33 0.66 0.66 1.32 1 2 C1.66 2 2.32 2 3 2 C3.33 1.34 3.66 0.68 4 0 C5.96363252 1.96363252 5.23119007 5.74097143 5.28125 8.4296875 C5.29965942 9.17582306 5.31806885 9.92195862 5.33703613 10.69070435 C5.39595946 13.08538711 5.44867821 15.48014297 5.5 17.875 C5.56766076 21.01837997 5.64139723 24.16153286 5.71875 27.3046875 C5.73232544 28.02977509 5.74590088 28.75486267 5.7598877 29.50192261 C5.83599347 32.58507745 6.01779341 35.05338022 7 38 C7.20889604 39.72908013 7.41467812 41.45867263 7.59545898 43.19091797 C8.53584299 52.11240134 10.46916534 60.38121266 13 69 C13.33644531 70.28583984 13.33644531 70.28583984 13.6796875 71.59765625 C17.95815254 87.41741278 25.31138201 103.7401231 39.6171875 112.73046875 C47.83908976 117.11099045 58.48124383 117.39542124 67.5 115.46484375 C71.92494049 113.88327322 75.99037288 111.42248305 80 109 C80.75 110.75 80.75 110.75 81 113 C77.09952443 118.67341902 69.41280649 120.85232449 63 122.375 C52.35029252 124.02263407 40.89360055 122.77325294 31.9609375 116.5234375 C30.99027344 115.76933594 30.99027344 115.76933594 30 115 C28.96875 114.2575 27.9375 113.515 26.875 112.75 C26.25625 112.1725 25.6375 111.595 25 111 C25 110.34 25 109.68 25 109 C24.34 109 23.68 109 23 109 C0.08218228 82.1797675 -2.76391511 39.36354076 -0.5 5.9375 C-0.33966518 3.95781032 -0.17557872 1.97839596 0 0 Z " fill="#DFDFDF" transform="translate(347,154)"/>
<path d="M0 0 C-0.33 1.32 -0.66 2.64 -1 4 C-9.88353077 6.29967879 -18.75425052 8.40720685 -27.765625 10.15625 C-40.82636129 12.72016519 -53.80956201 15.7183621 -66.79760742 18.62524414 C-71.06636339 19.57882565 -75.34170321 20.48844519 -79.625 21.375 C-87.0074589 22.9435594 -94.30986426 24.81232474 -101.62475586 26.66748047 C-108.45678386 28.39126674 -115.30669572 29.98415179 -122.1875 31.5 C-131.36894645 33.53359165 -140.38087825 36.0064895 -149.3984375 38.66796875 C-155.88024866 40.57009258 -162.29011283 42.1612641 -169 43 C-169.33 41.68 -169.66 40.36 -170 39 C-166.57053328 36.7652753 -163.61111112 35.46132898 -159.625 34.5625 C-154.97589946 33.47126858 -150.35988238 32.3099946 -145.75 31.0625 C-138.52230296 29.12479937 -131.27086768 27.29788941 -124.00732422 25.5 C-122.02536103 25.00631712 -120.04563164 24.50453742 -118.06640625 24 C-108.83470121 21.65282037 -99.56580792 19.52890175 -90.26025391 17.49560547 C-87.33812848 16.85487155 -84.41857775 16.20286886 -81.49902344 15.55053711 C-77.66714489 14.69525292 -73.8335898 13.84757513 -70 13 C-68.62739014 12.69594238 -68.62739014 12.69594238 -67.22705078 12.38574219 C-56.66353009 10.05010718 -46.1069117 7.75477801 -35.4609375 5.82421875 C-31.77173035 5.15257585 -28.09300328 4.43274154 -24.4140625 3.70703125 C-23.24464111 3.47757813 -22.07521973 3.248125 -20.87036133 3.01171875 C-18.53617334 2.55298586 -16.20264898 2.09086037 -13.86987305 1.625 C-12.25786011 1.30982422 -12.25786011 1.30982422 -10.61328125 0.98828125 C-9.65204346 0.79790283 -8.69080566 0.60752441 -7.70043945 0.41137695 C-5.08525748 0.01298787 -2.64034522 -0.07588406 0 0 Z " fill="#CBCBCB" transform="translate(347,219)"/>
<path d="M0 0 C1.32 0.33 2.64 0.66 4 1 C4.66 6.94 5.32 12.88 6 19 C6.99 17.02 7.98 15.04 9 13 C10.4375 11.0625 10.4375 11.0625 12 10 C14.1875 10.3125 14.1875 10.3125 16 11 C16 14 16 14 14.64453125 15.41015625 C13.83048828 16.19712891 13.83048828 16.19712891 13 17 C11.71938017 19.11725137 11.71938017 19.11725137 10.6875 21.4375 C10.32011719 22.19933594 9.95273437 22.96117187 9.57421875 23.74609375 C8.78736138 26.00004423 8.78736138 26.00004423 9.69921875 28.17578125 C11.60205749 30.84432688 14.04728663 31.71621158 17 33 C16.67 33.99 16.34 34.98 16 36 C10.375 36.25 10.375 36.25 7 34 C6.01 36.475 6.01 36.475 5 39 C1.125 38.125 1.125 38.125 0 37 C-0.07313567 34.46950598 -0.09247527 31.96695163 -0.0625 29.4375 C-0.05798828 28.72658203 -0.05347656 28.01566406 -0.04882812 27.28320312 C-0.03700864 25.52209987 -0.01907263 23.76103964 0 22 C-0.50660156 22.84884766 -0.50660156 22.84884766 -1.0234375 23.71484375 C-1.69246094 24.81505859 -1.69246094 24.81505859 -2.375 25.9375 C-2.81585938 26.66839844 -3.25671875 27.39929688 -3.7109375 28.15234375 C-5 30 -5 30 -7 31 C-7.268125 32.0725 -7.53625 33.145 -7.8125 34.25 C-9.17248163 38.54467884 -10.3339059 40.39299975 -14 43 C-17.625 43.125 -17.625 43.125 -21 42 C-23.6346101 39.11042763 -23.97614693 37.3399062 -24.25 33.4375 C-24.0556805 30.76560689 -23.68854493 28.55745261 -23 26 C-23.33 25.67 -23.66 25.34 -24 25 C-24.54981758 20.96800439 -24.32867437 19.44467709 -21.875 16.125 C-19 14 -19 14 -16 13.375 C-11.98872199 14.21068292 -10.52218538 15.82925266 -8 19 C-7.36328125 21.171875 -7.36328125 21.171875 -7 23 C-4.04708008 16.52077765 -2.35665669 10.42967756 -1.39453125 3.37109375 C-1 1 -1 1 0 0 Z M-17 19 C-17.31583648 21.97517573 -17.31583648 21.97517573 -15.625 23.6875 C-14.08882742 25.2094457 -14.08882742 25.2094457 -12 25 C-12.78130071 22.50447516 -12.78130071 22.50447516 -14 20 C-14.99 19.67 -15.98 19.34 -17 19 Z M-19 29 C-19 31.31 -19 33.62 -19 36 C-17.68 36.33 -16.36 36.66 -15 37 C-12.69328085 34.28450846 -12.69328085 34.28450846 -13.375 31.8125 C-13.58125 31.214375 -13.7875 30.61625 -14 30 C-15.65 29.67 -17.3 29.34 -19 29 Z " fill="#D6D6D6" transform="translate(381,155)"/>
<path d="M0 0 C2.475 0.495 2.475 0.495 5 1 C6.63421014 6.00288872 5.21557518 9.94570509 3.8125 14.8125 C3.33901071 16.52971844 2.86636636 18.24717006 2.39453125 19.96484375 C2.0380249 21.24464111 2.0380249 21.24464111 1.67431641 22.55029297 C0.19294746 27.93192077 -1.12380963 33.35500334 -2.45117188 38.77636719 C-3.07758054 41.31432544 -3.7192769 43.84827365 -4.359375 46.3828125 C-4.82346963 48.25507135 -5.28701625 50.12746613 -5.75 52 C-5.97300781 52.87253418 -6.19601563 53.74506836 -6.42578125 54.64404297 C-8.69378764 63.41074439 -8.69378764 63.41074439 -7 72 C-6.01 72 -5.02 72 -4 72 C-3.80664062 71.39671875 -3.61328125 70.7934375 -3.4140625 70.171875 C-3.15367187 69.37265625 -2.89328125 68.5734375 -2.625 67.75 C-2.24214844 66.56664062 -2.24214844 66.56664062 -1.8515625 65.359375 C-1.04826333 63.13372042 -0.10288338 61.09068328 1 59 C1.66 59 2.32 59 3 59 C3 58.34 3 57.68 3 57 C3.99 57 4.98 57 6 57 C5.53328373 62.41390868 4.75702189 66.20517932 2 71 C2.66 71 3.32 71 4 71 C4 71.66 4 72.32 4 73 C3.01 73 2.02 73 1 73 C0.67 73.66 0.34 74.32 0 75 C-3.20380017 77.13586678 -4.01939967 77.23132175 -7.6875 77.125 C-8.49574219 77.10695313 -9.30398437 77.08890625 -10.13671875 77.0703125 C-10.75160156 77.04710937 -11.36648437 77.02390625 -12 77 C-12 76.34 -12 75.68 -12 75 C-12.99 74.67 -13.98 74.34 -15 74 C-15 73.34 -15 72.68 -15 72 C-15.495 72.99 -15.495 72.99 -16 74 C-16.66 74 -17.32 74 -18 74 C-17.34 70.7 -16.68 67.4 -16 64 C-16.66 64 -17.32 64 -18 64 C-18 63.34 -18 62.68 -18 62 C-18.66 62 -19.32 62 -20 62 C-20 60.35 -20 58.7 -20 57 C-18.02 57 -16.04 57 -14 57 C-13.95101562 56.41734375 -13.90203125 55.8346875 -13.8515625 55.234375 C-12.09220625 35.94212369 -6.66762113 18.10110203 0 0 Z " fill="#DADADA" transform="translate(247,147)"/>
<path d="M0 0 C2.4375 0.1875 2.4375 0.1875 5 1 C7.1526372 3.54402578 6.99814592 5.03337348 6.8125 8.375 C6.00219542 11.99020504 4.806058 14.7805053 3 18 C2.34 18 1.68 18 1 18 C0.9175 18.5775 0.835 19.155 0.75 19.75 C0 22 0 22 -2 23.6875 C-4.73235043 26.84678019 -4.59730491 29.12723265 -4.75 33.25 C-4.80671875 34.51328125 -4.8634375 35.7765625 -4.921875 37.078125 C-4.94765625 38.04234375 -4.9734375 39.0065625 -5 40 C-6.485 40.495 -6.485 40.495 -8 41 C-8 40.34 -8 39.68 -8 39 C-8.66 39 -9.32 39 -10 39 C-10.33 39.99 -10.66 40.98 -11 42 C-13.31 42 -15.62 42 -18 42 C-22 35.25 -22 35.25 -22 33 C-21.34 33 -20.68 33 -20 33 C-18.56149468 30.4312405 -17.78001273 28.18879696 -17 25.3125 C-16.67 24.219375 -16.34 23.12625 -16 22 C-15.34 21.67 -14.68 21.34 -14 21 C-13.60861322 18.93897765 -13.60861322 18.93897765 -13.5 16.5625 C-13.2212693 12.2212693 -13.2212693 12.2212693 -11 10 C-11 10.66 -11 11.32 -11 12 C-10.34 12 -9.68 12 -9 12 C-8.608125 11.113125 -8.21625 10.22625 -7.8125 9.3125 C-5.92826464 5.86889745 -3.87209675 3.64535227 -1 1 C-0.67 0.67 -0.34 0.34 0 0 Z M0 7 C-3.27037599 10.27037599 -3.56856013 13.5130254 -4 18 C0.0042343 14.50912907 1.62671065 12.35048061 2 7 C1.34 7 0.68 7 0 7 Z M-14 33 C-14.69159401 34.84725052 -14.69159401 34.84725052 -15 37 C-14.01 38.485 -14.01 38.485 -13 40 C-13 37.69 -13 35.38 -13 33 C-13.33 33 -13.66 33 -14 33 Z " fill="#ECECEC" transform="translate(184,194)"/>
<path d="M0 0 C2.64 0 5.28 0 8 0 C8.33 0.66 8.66 1.32 9 2 C7.61457684 5.62848922 6.15648338 8.76527494 4 12 C4.61101562 11.82984375 5.22203125 11.6596875 5.8515625 11.484375 C29.71416927 5.1658256 55.32373606 0.74550646 80 0 C79.375 1.875 79.375 1.875 78 4 C73.33402463 6.09651238 68.33716042 6.70040497 63.3125 7.4375 C61.6080709 7.69790348 59.90364387 7.95832052 58.19921875 8.21875 C56.46617604 8.47936763 54.73310366 8.73978804 53 9 C42.90572719 10.52800386 32.84430826 12.16265676 22.8125 14.0625 C21.95156738 14.22484131 21.09063477 14.38718262 20.20361328 14.55444336 C16.34203245 15.29798459 12.53126863 16.10200179 8.73046875 17.11328125 C5.46713277 17.88896425 2.82749414 18.21743039 -0.5 18.125 C-1.3559375 18.10695312 -2.211875 18.08890625 -3.09375 18.0703125 C-3.7228125 18.04710937 -4.351875 18.02390625 -5 18 C-5.24248625 15.07500966 -5.31226642 13.48048137 -3.6875 10.98046875 C-3.130625 10.38878906 -2.57375 9.79710937 -2 9.1875 C-1.443125 8.58292969 -0.88625 7.97835937 -0.3125 7.35546875 C0.120625 6.90816406 0.55375 6.46085938 1 6 C0.34 5.34 -0.32 4.68 -1 4 C-0.360625 3.87625 0.27875 3.7525 0.9375 3.625 C1.9584375 3.315625 1.9584375 3.315625 3 3 C3.33 2.34 3.66 1.68 4 1 C2.68 0.67 1.36 0.34 0 0 Z " fill="#CDCDCD" transform="translate(440,175)"/>
<path d="M0 0 C0.28617187 0.57621094 0.57234375 1.15242187 0.8671875 1.74609375 C7.42645144 14.79676718 14.48923134 26.90258171 28.6875 32.4375 C41.77462091 34.83636127 51.86105126 32.72978153 63 26 C63.75 27.75 63.75 27.75 64 30 C60.09952443 35.67341902 52.41280649 37.85232449 46 39.375 C35.35029252 41.02263407 23.89360055 39.77325294 14.9609375 33.5234375 C14.31382812 33.02070313 13.66671875 32.51796875 13 32 C11.96875 31.2575 10.9375 30.515 9.875 29.75 C9.25625 29.1725 8.6375 28.595 8 28 C8 27.34 8 26.68 8 26 C7.34 26 6.68 26 6 26 C0.93292273 19.95613675 -3.07831348 12.28716367 -6 5 C-5.67 4.34 -5.34 3.68 -5 3 C-3.515 3.99 -3.515 3.99 -2 5 C-2 4.34 -2 3.68 -2 3 C-1.34 3 -0.68 3 0 3 C0 2.01 0 1.02 0 0 Z " fill="#D7D7D7" transform="translate(364,237)"/>
<path d="M0 0 C3.73742743 3.34401402 4.40072289 6.1565671 5 11 C5.08079891 13.38425267 5.10739608 15.77066768 5.09375 18.15625 C5.09016479 18.8431189 5.08657959 19.52998779 5.08288574 20.2376709 C5.01681795 28.99434503 4.75626992 37.74726435 4.5 46.5 C4.45161732 48.20962961 4.40343921 49.91926502 4.35546875 51.62890625 C4.23932639 55.75267455 4.1204545 59.8763555 4 64 C3.67 64 3.34 64 3 64 C2.67 52.78 2.34 41.56 2 30 C1.01 30.33 0.02 30.66 -1 31 C-1.495 18.13 -1.495 18.13 -2 5 C-8.34345547 7.11448516 -9.07542636 7.4641999 -12 13 C-14.27194988 19.18520163 -14.2670954 24.95641992 -14.1875 31.5 C-14.18685547 32.50675781 -14.18621094 33.51351562 -14.18554688 34.55078125 C-14.15458007 39.8013743 -13.90819818 44.82690317 -13 50 C-13.66 49.67 -14.32 49.34 -15 49 C-15 54.94 -15 60.88 -15 67 C-15.33 67 -15.66 67 -16 67 C-16.07347656 65.60201172 -16.07347656 65.60201172 -16.1484375 64.17578125 C-16.51464559 57.93130187 -16.95090575 51.85251206 -18.0625 45.6875 C-20.02719424 33.60165361 -21.52219568 17.09155061 -14.3125 6.52734375 C-9.83118751 1.23379338 -7.21255472 -0.74612635 0 0 Z " fill="#BCBCBC" transform="translate(349,125)"/>
<path d="M0 0 C1.32 0.33 2.64 0.66 4 1 C4.66 6.94 5.32 12.88 6 19 C6.99 17.02 7.98 15.04 9 13 C10.4375 11.0625 10.4375 11.0625 12 10 C14.1875 10.3125 14.1875 10.3125 16 11 C16 14 16 14 14.64453125 15.41015625 C14.10183594 15.93480469 13.55914062 16.45945313 13 17 C11.71938017 19.11725137 11.71938017 19.11725137 10.6875 21.4375 C10.32011719 22.19933594 9.95273437 22.96117187 9.57421875 23.74609375 C8.78736138 26.00004423 8.78736138 26.00004423 9.69921875 28.17578125 C11.60205749 30.84432688 14.04728663 31.71621158 17 33 C16.67 33.99 16.34 34.98 16 36 C10.375 36.25 10.375 36.25 7 34 C6.01 36.475 6.01 36.475 5 39 C1.125 38.125 1.125 38.125 0 37 C-0.01665074 35.43576568 0.03691108 33.87064994 0.12109375 32.30859375 C0.19360352 30.89223633 0.19360352 30.89223633 0.26757812 29.44726562 C0.32365234 28.45404297 0.37972656 27.46082031 0.4375 26.4375 C0.48970703 25.44041016 0.54191406 24.44332031 0.59570312 23.41601562 C0.7258237 20.94372478 0.86080181 18.4717937 1 16 C0.01 16 -0.98 16 -2 16 C-1.85975781 13.52039864 -1.7130815 11.04147598 -1.5625 8.5625 C-1.52318359 7.85544922 -1.48386719 7.14839844 -1.44335938 6.41992188 C-1.11328125 1.11328125 -1.11328125 1.11328125 0 0 Z " fill="#F3F3F3" transform="translate(381,155)"/>
<path d="M0 0 C4.875 1.875 4.875 1.875 6 3 C6.07313567 5.53049402 6.09247527 8.03304837 6.0625 10.5625 C6.05798828 11.27341797 6.05347656 11.98433594 6.04882812 12.71679688 C6.03700864 14.47790013 6.01907263 16.23896036 6 18 C9.27773504 17.24849977 9.27773504 17.24849977 11 14 C12.875 14.25 12.875 14.25 15 15 C16.25 17.0625 16.25 17.0625 17 19 C16.38125 19.103125 15.7625 19.20625 15.125 19.3125 C12.63473516 19.87525373 12.63473516 19.87525373 11 23 C9.125 23.29296875 9.125 23.29296875 7 23.1875 C6.29875 23.16042969 5.5975 23.13335937 4.875 23.10546875 C3.946875 23.05326172 3.946875 23.05326172 3 23 C2.34 23 1.68 23 1 23 C0.1028125 24.36125 0.1028125 24.36125 -0.8125 25.75 C-4.40535373 31.08795411 -4.40535373 31.08795411 -8 33 C-11.7292692 33.02633665 -15.32232818 32.59254957 -19 32 C-19 31.67 -19 31.34 -19 31 C-18.0925 30.855625 -17.185 30.71125 -16.25 30.5625 C-15.1775 30.376875 -14.105 30.19125 -13 30 C-12.236875 29.87625 -11.47375 29.7525 -10.6875 29.625 C-10.130625 29.41875 -9.57375 29.2125 -9 29 C-8.67 28.01 -8.34 27.02 -8 26 C-7.01 26.33 -6.02 26.66 -5 27 C-5 26.34 -5 25.68 -5 25 C-5.66 25 -6.32 25 -7 25 C-6.67 23.35 -6.34 21.7 -6 20 C-5.34 20.33 -4.68 20.66 -4 21 C-1.83801833 16.66231898 -1.83801833 16.66231898 -1 12 C-1.99 12.99 -2.98 13.98 -4 15 C-3.67 13.68 -3.34 12.36 -3 11 C-3.99 11 -4.98 11 -6 11 C-6 11.66 -6 12.32 -6 13 C-6.66 13 -7.32 13 -8 13 C-8.33 13.99 -8.66 14.98 -9 16 C-8.53198701 11.00786149 -6.08284263 6.87036007 -3 3 C-2.34 3 -1.68 3 -1 3 C-0.67 2.01 -0.34 1.02 0 0 Z " fill="#D7D7D7" transform="translate(256,193)"/>
<path d="M0 0 C-0.33 0.99 -0.66 1.98 -1 3 C-13.51958351 5.46031149 -26.04581695 7.6982907 -38.65625 9.63671875 C-42.66994009 10.25884071 -46.67931853 10.90591932 -50.6875 11.5625 C-51.76487427 11.73471069 -51.76487427 11.73471069 -52.86401367 11.91040039 C-56.30666551 12.47752498 -59.67364374 13.14342162 -63.05078125 14.0234375 C-66.84036995 15.00323921 -70.61310306 15.57663788 -74.5 16.0625 C-75.79035156 16.22621094 -77.08070313 16.38992187 -78.41015625 16.55859375 C-79.59480469 16.70425781 -80.77945312 16.84992188 -82 17 C-82.90621094 17.11472656 -83.81242187 17.22945312 -84.74609375 17.34765625 C-86.49687799 17.569235 -88.24833316 17.78551018 -90 18 C-90 17.01 -90 16.02 -90 15 C-73.50482203 10.26313822 -56.7178555 7.67643721 -39.78945923 5.05856323 C-34.96626797 4.31213876 -30.14966666 3.53574181 -25.3359375 2.73046875 C-24.19922607 2.54170166 -23.06251465 2.35293457 -21.89135742 2.15844727 C-19.83093671 1.815384 -17.7711422 1.46852666 -15.7121582 1.11694336 C-10.39353674 0.24515377 -5.3901944 -0.16429666 0 0 Z " fill="#9A9A9A" transform="translate(455,201)"/>
<path d="M0 0 C1.9375 0.1875 1.9375 0.1875 4 1 C6.3941573 4.27621525 6.54485833 8.05543885 7 12 C8.11375 10.7625 8.11375 10.7625 9.25 9.5 C12 7 12 7 16 7 C15.67 8.32 15.34 9.64 15 11 C15.66 11 16.32 11 17 11 C17.33 11.99 17.66 12.98 18 14 C16 14 14 14 12 14 C11.690625 14.61875 11.38125 15.2375 11.0625 15.875 C10.375 17.25 9.6875 18.625 9 20 C8.77532169 21.53668865 8.59203195 23.07968054 8.4375 24.625 C8.35371094 25.44226563 8.26992187 26.25953125 8.18359375 27.1015625 C8.12300781 27.72804687 8.06242188 28.35453125 8 29 C8.99 29 9.98 29 11 29 C11.33 27.68 11.66 26.36 12 25 C12.66 25 13.32 25 14 25 C14.28875 24.05125 14.5775 23.1025 14.875 22.125 C16 19 16 19 18 17 C18.33 17.99 18.66 18.98 19 20 C18.34 20 17.68 20 17 20 C17 20.99 17 21.98 17 23 C17.99 22.01 18.98 21.02 20 20 C20.66 20.33 21.32 20.66 22 21 C20.90353942 22.79639296 19.79754852 24.58697154 18.6875 26.375 C18.07261719 27.37273437 17.45773438 28.37046875 16.82421875 29.3984375 C15 32 15 32 12 34 C8.4375 34.25 8.4375 34.25 5 34 C2.37233991 31.37233991 2.55432454 29.78584523 2.25 26.125 C2.15203125 25.07570312 2.0540625 24.02640625 1.953125 22.9453125 C2.0021918 19.86228181 2.56639821 18.64419885 4 16 C4.45064632 13.41467299 4.45064632 13.41467299 4.625 10.75 C4.73714844 9.41195312 4.73714844 9.41195312 4.8515625 8.046875 C4.90054688 7.37140625 4.94953125 6.6959375 5 6 C4.67 7.65 4.34 9.3 4 11 C3.34 11 2.68 11 2 11 C1.67 9.68 1.34 8.36 1 7 C0.67 8.65 0.34 10.3 0 12 C-0.33 12 -0.66 12 -1 12 C-1.02687279 10.18757948 -1.04633715 8.37504767 -1.0625 6.5625 C-1.07410156 5.55316406 -1.08570313 4.54382813 -1.09765625 3.50390625 C-1 1 -1 1 0 0 Z " fill="#CECECE" transform="translate(212,198)"/>
<path d="M0 0 C0.33 0.66 0.66 1.32 1 2 C1.66 2 2.32 2 3 2 C4.02941422 5.08824265 4.12907717 7.23705582 4.1328125 10.47265625 C4.13474609 12.06883789 4.13474609 12.06883789 4.13671875 13.69726562 C4.13285156 14.80779297 4.12898438 15.91832031 4.125 17.0625 C4.13080078 18.7340918 4.13080078 18.7340918 4.13671875 20.43945312 C4.13542969 21.50228516 4.13414062 22.56511719 4.1328125 23.66015625 C4.13168457 24.63605713 4.13055664 25.61195801 4.12939453 26.61743164 C4 29 4 29 3 31 C-2.44927536 32.27536232 -2.44927536 32.27536232 -5 31 C-5.72693904 29.02111039 -6.39816251 27.02045442 -7 25 C-9.64 25.99 -12.28 26.98 -15 28 C-15.66 27.34 -16.32 26.68 -17 26 C-17.66 25.67 -18.32 25.34 -19 25 C-14 20 -14 20 -11.75 18 C-9.71078699 15.66947084 -9.33777931 14.04001379 -9 11 C-7.35 11 -5.7 11 -4 11 C-3.93941406 11.78246094 -3.87882812 12.56492188 -3.81640625 13.37109375 C-3.73261719 14.38300781 -3.64882813 15.39492187 -3.5625 16.4375 C-3.44068359 17.95150391 -3.44068359 17.95150391 -3.31640625 19.49609375 C-3.26788532 21.93640779 -3.26788532 21.93640779 -2 23 C-1.05617248 20.16851745 -0.89367664 18.5093211 -0.9375 15.5859375 C-0.94523437 14.74289063 -0.95296875 13.89984375 -0.9609375 13.03125 C-0.97382813 12.1546875 -0.98671875 11.278125 -1 10.375 C-1.02539544 8.63287303 -1.04646713 6.89067579 -1.0625 5.1484375 C-1.07410156 4.37677246 -1.08570313 3.60510742 -1.09765625 2.81005859 C-1 1 -1 1 0 0 Z " fill="#E0E0E0" transform="translate(334,173)"/>
<path d="M0 0 C0.33 0 0.66 0 1 0 C1.14695312 1.29550781 1.29390625 2.59101563 1.4453125 3.92578125 C3.40275329 19.88156887 7.25485803 34.39804456 14 49 C14.66 48.34 15.32 47.68 16 47 C16.99 48.32 17.98 49.64 19 51 C19.66 49.35 20.32 47.7 21 46 C22.18414294 49.55242882 21.69535532 50.69830562 20.5625 54.1875 C20.13130859 55.53908203 20.13130859 55.53908203 19.69140625 56.91796875 C19.46324219 57.60503906 19.23507813 58.29210937 19 59 C18.34 58.01 17.68 57.02 17 56 C15.35 57.32 13.7 58.64 12 60 C11.76925781 59.34515625 11.53851563 58.6903125 11.30078125 58.015625 C9.53606931 53.07722164 7.68263951 48.2346511 5.5625 43.4375 C3.41011431 38.31722846 1.72066401 33.14369195 0.1875 27.8125 C-0.14109009 26.70829712 -0.14109009 26.70829712 -0.47631836 25.58178711 C-1.95104868 20.25647115 -2.19119765 15.52288064 -2 10 C-1.34 10 -0.68 10 0 10 C0 6.7 0 3.4 0 0 Z " fill="#A4A4A4" transform="translate(111,151)"/>
<path d="M0 0 C0.93423645 3.01031744 1.04449911 3.86650268 0 7 C0.87914688 9.6569191 0.87914688 9.6569191 2 12 C2.66 12 3.32 12 4 12 C4.33 10.68 4.66 9.36 5 8 C5.3125 11.25 5.3125 11.25 5 15 C1.9573727 18.30342393 -0.60247265 19.46371618 -5 20 C-6.03125 20.20625 -7.0625 20.4125 -8.125 20.625 C-11 21 -11 21 -14 20 C-15.66790422 13.60636714 -14.31905472 8.7011991 -11 3 C-7.41642211 -0.34906973 -4.8402439 -0.27924484 0 0 Z M-6 6 C-8.35910353 10.2637281 -8.35910353 10.2637281 -9 15 C-8.34 15 -7.68 15 -7 15 C-5.68 12.36 -4.36 9.72 -3 7 C-3.99 6.67 -4.98 6.34 -6 6 Z " fill="#D1D1D1" transform="translate(411,165)"/>
<path d="M0 0 C0 0.99 0 1.98 0 3 C-5.02734685 5.81564069 -9.94419195 7.14390572 -15.5 8.4375 C-22.7213271 10.17236129 -29.8481769 12.04839151 -36.95703125 14.203125 C-40.28920396 15.07573506 -43.58470581 15.57148128 -47 16 C-47.33 14.68 -47.66 13.36 -48 12 C-44.57053328 9.7652753 -41.61111112 8.46132898 -37.625 7.5625 C-33.49798385 6.59681888 -29.39668377 5.58325327 -25.30786133 4.46557617 C-7.51523672 -0.39553877 -7.51523672 -0.39553877 0 0 Z " fill="#CBCBCB" transform="translate(225,246)"/>
<path d="M0 0 C1.65 0.33 3.3 0.66 5 1 C4.00495429 7.94190714 2.86411519 14.82016611 1.4375 21.6875 C0.37513468 26.84450954 -0.41961696 31.89312678 -0.7890625 37.14453125 C-1 39 -1 39 -2 41 C-1.34 41.33 -0.68 41.66 0 42 C-0.99 42.66 -1.98 43.32 -3 44 C-3.495 42.515 -3.495 42.515 -4 41 C-4.99 40.67 -5.98 40.34 -7 40 C-7.99 40.495 -7.99 40.495 -9 41 C-8.08030206 35.01679654 -6.80494384 29.10993637 -5.5625 23.1875 C-5.34529297 22.14529297 -5.12808594 21.10308594 -4.90429688 20.02929688 C-4.27489352 17.01836732 -3.63940607 14.00882011 -3 11 C-2.81163574 10.11006348 -2.62327148 9.22012695 -2.42919922 8.30322266 C-1.1199476 2.23989521 -1.1199476 2.23989521 0 0 Z " fill="#DADADA" transform="translate(276,168)"/>
<path d="M0 0 C3.61995009 0.77570359 6.98807526 1.51788801 9.16015625 4.69921875 C9.45792969 5.35535156 9.75570312 6.01148438 10.0625 6.6875 C10.36285156 7.33074219 10.66320312 7.97398437 10.97265625 8.63671875 C11.48119141 9.80654297 11.48119141 9.80654297 12 11 C12.48082031 12.09570312 12.96164063 13.19140625 13.45703125 14.3203125 C17.73236972 24.51618299 20.77224288 33.88131173 21 45 C20.34 45 19.68 45 19 45 C18.67 46.65 18.34 48.3 18 50 C17.67 50 17.34 50 17 50 C16.82984375 48.91203125 16.6596875 47.8240625 16.484375 46.703125 C13.98144152 31.27130623 9.52822703 17.60279241 1.28515625 4.21484375 C0 2 0 2 0 0 Z " fill="#B2B2B2" transform="translate(153,161)"/>
<path d="M0 0 C1.32 0.33 2.64 0.66 4 1 C3.42961368 8.07449307 1.46273779 14.36066528 -0.8125 21.0625 C-1.15603516 22.11244141 -1.49957031 23.16238281 -1.85351562 24.24414062 C-3.75143155 29.90228023 -5.81223334 34.94971799 -9 40 C-10.5625 38.9375 -10.5625 38.9375 -12 37 C-11.51818387 25.19550472 -5.73648866 13.10063622 -2 2 C-1.34 2 -0.68 2 0 2 C0 1.34 0 0.68 0 0 Z " fill="#C5C5C5" transform="translate(139,163)"/>
<path d="M0 0 C0.66 0.33 1.32 0.66 2 1 C1.67 1.33 1.34 1.66 1 2 C3.97 2.495 3.97 2.495 7 3 C7 3.33 7 3.66 7 4 C5.63875 4.309375 5.63875 4.309375 4.25 4.625 C0.11654062 6.37377127 -0.92107903 8.06489959 -3 12 C-5.27194988 18.18520163 -5.2670954 23.95641992 -5.1875 30.5 C-5.18685547 31.50675781 -5.18621094 32.51351562 -5.18554688 33.55078125 C-5.15458007 38.8013743 -4.90819818 43.82690317 -4 49 C-4.66 48.67 -5.32 48.34 -6 48 C-6 53.94 -6 59.88 -6 66 C-6.33 66 -6.66 66 -7 66 C-7.07347656 64.60201172 -7.07347656 64.60201172 -7.1484375 63.17578125 C-7.51464559 56.93130187 -7.95090575 50.85251206 -9.0625 44.6875 C-11.02172645 32.63528883 -12.57726805 15.95690242 -5.2421875 5.4921875 C-3.57185111 3.55135129 -1.87254482 1.74428833 0 0 Z " fill="#C3C3C3" transform="translate(340,126)"/>
<path d="M0 0 C0.99 0.33 1.98 0.66 3 1 C3.33 1.99 3.66 2.98 4 4 C3.01 4.33 2.02 4.66 1 5 C0.27829046 6.64358071 -0.38112065 8.31500428 -1 10 C-1.9787405 11.53460127 -2.97979453 13.05514642 -4 14.5625 C-7.44457976 20.13263752 -8.35766676 25.55451814 -9 32 C-5.9254644 31.2236068 -5.9254644 31.2236068 -4 29 C-1.525 29.99 -1.525 29.99 1 31 C-0.80412643 34.26460973 -1.83394693 35.88929795 -5 38 C-8.6875 37.625 -8.6875 37.625 -12 37 C-14.52379917 29.42860248 -12.82362432 21.785054 -9.44921875 14.78125 C-6.65660008 9.47108858 -3.87551094 4.6011022 0 0 Z " fill="#DCDCDC" transform="translate(110,231)"/>
<path d="M0 0 C0.33 1.32 0.66 2.64 1 4 C-0.65 3.67 -2.3 3.34 -4 3 C-3.24849977 6.27773504 -3.24849977 6.27773504 0 8 C0 8.66 0 9.32 0 10 C0.66 10 1.32 10 2 10 C2 8.02 2 6.04 2 4 C2.99 4.33 3.98 4.66 5 5 C5.33 7.64 5.66 10.28 6 13 C5.01 13.495 5.01 13.495 4 14 C4 14.99 4 15.98 4 17 C3.34 17 2.68 17 2 17 C1.67 16.34 1.34 15.68 1 15 C-2.02934491 14.34227572 -2.02934491 14.34227572 -5 14 C-5 16.31 -5 18.62 -5 21 C-6.32 21 -7.64 21 -9 21 C-8.98839844 20.28972656 -8.97679687 19.57945312 -8.96484375 18.84765625 C-8.95582031 17.92855469 -8.94679688 17.00945312 -8.9375 16.0625 C-8.92009766 14.68771484 -8.92009766 14.68771484 -8.90234375 13.28515625 C-8.74050951 11.03406673 -8.74050951 11.03406673 -10 10 C-10.39588785 6.43700935 -10.42667508 4.62360205 -8.375 1.625 C-5.3962104 -0.4131192 -3.53677664 -0.32152515 0 0 Z " fill="#D3D3D3" transform="translate(367,170)"/>
<path d="M0 0 C0.66 0.33 1.32 0.66 2 1 C2 2.32 2 3.64 2 5 C2.66 5 3.32 5 4 5 C3.67 3.35 3.34 1.7 3 0 C3.66 0 4.32 0 5 0 C6.10139229 8.85193059 3.41221191 16.40065888 -1 24 C-3.99036464 26.86888108 -5.14675913 27.93560446 -9.3125 28.25 C-10.199375 28.1675 -11.08625 28.085 -12 28 C-13.125 25.75 -13.125 25.75 -14 23 C-13.125 20.6875 -13.125 20.6875 -12 19 C-11.01 19 -10.02 19 -9 19 C-8.67 19.99 -8.34 20.98 -8 22 C-2.81995609 15.5471453 -0.60432706 8.15841526 0 0 Z " fill="#C3C3C3" transform="translate(212,204)"/>
<path d="M0 0 C3.875 0.875 3.875 0.875 5 2 C4.70241581 4.3381615 4.36760731 6.67182036 4 9 C4 9.66 4 10.32 4 11 C4.99 11 5.98 11 7 11 C7 11.66 7 12.32 7 13 C6.01 13.66 5.02 14.32 4 15 C4.33 16.98 4.66 18.96 5 21 C1.47873697 22.66281865 -0.28969251 23.15147474 -4 22 C-4.66 22.33 -5.32 22.66 -6 23 C-7.22759458 17.42002462 -6.80728829 14.91275451 -4 10 C-3.43489495 8.59251874 -2.89373049 7.17522486 -2.375 5.75 C-1 2 -1 2 0 0 Z " fill="#D0D0D0" transform="translate(195,210)"/>
<path d="M0 0 C2.4375 0.875 2.4375 0.875 3.8125 2.5 C5.30575126 8.1743548 3.19709989 12.95571323 0.4375 17.875 C-0.2225 17.875 -0.8825 17.875 -1.5625 17.875 C-1.8925 18.535 -2.2225 19.195 -2.5625 19.875 C-2.5625 19.215 -2.5625 18.555 -2.5625 17.875 C-3.8825 18.865 -5.2025 19.855 -6.5625 20.875 C-7.2225 20.545 -7.8825 20.215 -8.5625 19.875 C-8.0675 15.42 -8.0675 15.42 -7.5625 10.875 C-7.8925 11.865 -8.2225 12.855 -8.5625 13.875 C-9.5525 15.36 -9.5525 15.36 -10.5625 16.875 C-11.2225 16.875 -11.8825 16.875 -12.5625 16.875 C-12.83713341 11.79428183 -10.92755628 9.35481637 -8.125 5.3125 C-7.71378906 4.71308594 -7.30257812 4.11367187 -6.87890625 3.49609375 C-4.80178976 0.93822033 -3.3274229 -0.16231331 0 0 Z M-2.5625 6.875 C-5.83287599 10.14537599 -6.13106013 13.3880254 -6.5625 17.875 C-2.5582657 14.38412907 -0.93578935 12.22548061 -0.5625 6.875 C-1.2225 6.875 -1.8825 6.875 -2.5625 6.875 Z " fill="#BBBBBB" transform="translate(186.5625,194.125)"/>
<path d="M0 0 C1.65 0.33 3.3 0.66 5 1 C6.79983385 6.20550747 5.01286274 10.734337 3.5625 15.8125 C3.31951172 16.69615234 3.07652344 17.57980469 2.82617188 18.49023438 C2.22717517 20.66306556 1.61821989 22.83257509 1 25 C-2.465 23.02 -2.465 23.02 -6 21 C-5.04968099 13.77757552 -2.89476266 6.68022151 0 0 Z " fill="#D7D7D7" transform="translate(247,147)"/>
<path d="M0 0 C0 0.33 0 0.66 0 1 C-0.969375 1.12375 -1.93875 1.2475 -2.9375 1.375 C-4.4534375 1.684375 -4.4534375 1.684375 -6 2 C-6.33 2.66 -6.66 3.32 -7 4 C-6.01 4.33 -5.02 4.66 -4 5 C-4.92232422 5.35771484 -4.92232422 5.35771484 -5.86328125 5.72265625 C-8.52446895 7.3135308 -9.04264889 8.59172725 -10.1875 11.4375 C-10.51105469 12.21996094 -10.83460938 13.00242188 -11.16796875 13.80859375 C-11.81933396 15.52416128 -12.41970278 17.25910835 -13 19 C-11.68 18.34 -10.36 17.68 -9 17 C-9.99 19.475 -9.99 19.475 -11 22 C-10.01 22.33 -9.02 22.66 -8 23 C-10.78863007 24.39431504 -12.92078868 24.25660094 -16 24 C-18.4972176 20.25417361 -18.61925767 17.33480369 -18 13 C-15.02713619 3.81114821 -9.76478125 -0.84179149 0 0 Z " fill="#C1C1C1" transform="translate(310,183)"/>
<path d="M0 0 C0.33 0 0.66 0 1 0 C1 2.64 1 5.28 1 8 C1.94875 7.21625 2.8975 6.4325 3.875 5.625 C4.40867188 5.18414062 4.94234375 4.74328125 5.4921875 4.2890625 C6.71051161 3.24749008 7.86660097 2.13339903 9 1 C9.8125 4.1875 9.8125 4.1875 10 8 C7.8125 10.9375 7.8125 10.9375 5 13 C3.68 13 2.36 13 1 13 C0.67 14.65 0.34 16.3 0 18 C-1.175625 17.690625 -1.175625 17.690625 -2.375 17.375 C-3.674375 17.189375 -3.674375 17.189375 -5 17 C-5.66 17.66 -6.32 18.32 -7 19 C-8 16 -8 16 -7.0625 13.8125 C-6.5365625 12.9153125 -6.5365625 12.9153125 -6 12 C-6.99 12 -7.98 12 -9 12 C-9.33 12.66 -9.66 13.32 -10 14 C-10 13.01 -10 12.02 -10 11 C-10.66 10.34 -11.32 9.68 -12 9 C-10.5459375 8.814375 -10.5459375 8.814375 -9.0625 8.625 C-8.051875 8.41875 -7.04125 8.2125 -6 8 C-5.67 7.34 -5.34 6.68 -5 6 C-4.34 6 -3.68 6 -3 6 C-3 6.66 -3 7.32 -3 8 C-2.34 7.67 -1.68 7.34 -1 7 C-0.59270772 4.67843403 -0.25561323 2.3431213 0 0 Z M-4 10 C-3 12 -3 12 -3 12 Z M-5 12 C-4 14 -4 14 -4 14 Z " fill="#CECECE" transform="translate(179,227)"/>
<path d="M0 0 C2.0625 0.4375 2.0625 0.4375 4 1 C3.9278125 1.63164062 3.855625 2.26328125 3.78125 2.9140625 C3.08138391 9.65999402 2.97266858 16.25169586 3.16015625 23.03125 C3 26 3 26 1 29 C1.33 27.02 1.66 25.04 2 23 C-0.47627099 23.63921965 -0.47627099 23.63921965 -3 25 C-4.36078035 27.52372901 -4.36078035 27.52372901 -5 30 C-6.52900476 26.00816878 -5.52325315 22.35009756 -4.6875 18.3125 C-4.54650879 17.60150146 -4.40551758 16.89050293 -4.26025391 16.15795898 C-3.84954777 14.10325753 -3.42660614 12.05145072 -3 10 C-2.79761719 9.00484375 -2.59523438 8.0096875 -2.38671875 6.984375 C-1.15503579 1.15503579 -1.15503579 1.15503579 0 0 Z " fill="#BEBEBE" transform="translate(287,166)"/>
<path d="M0 0 C0.99 0 1.98 0 3 0 C2.53328373 5.41390868 1.75702189 9.20517932 -1 14 C-0.34 14 0.32 14 1 14 C1 14.66 1 15.32 1 16 C0.01 16 -0.98 16 -2 16 C-2.33 16.66 -2.66 17.32 -3 18 C-6.20380017 20.13586678 -7.01939967 20.23132175 -10.6875 20.125 C-11.49574219 20.10695312 -12.30398437 20.08890625 -13.13671875 20.0703125 C-13.75160156 20.04710937 -14.36648437 20.02390625 -15 20 C-15 19.34 -15 18.68 -15 18 C-15.99 17.67 -16.98 17.34 -18 17 C-17.01 15.35 -16.02 13.7 -15 12 C-14.01 12.66 -13.02 13.32 -12 14 C-12 14.66 -12 15.32 -12 16 C-10.35 15.67 -8.7 15.34 -7 15 C-6.80664062 14.39671875 -6.61328125 13.7934375 -6.4140625 13.171875 C-6.15367187 12.37265625 -5.89328125 11.5734375 -5.625 10.75 C-5.36976563 9.96109375 -5.11453125 9.1721875 -4.8515625 8.359375 C-4.04826333 6.13372042 -3.10288338 4.09068328 -2 2 C-1.34 2 -0.68 2 0 2 C0 1.34 0 0.68 0 0 Z " fill="#E5E5E5" transform="translate(250,204)"/>
<path d="M0 0 C-0.33 0.99 -0.66 1.98 -1 3 C-33.94491169 9.47957467 -33.94491169 9.47957467 -47 9 C-46.67 8.34 -46.34 7.68 -46 7 C-43.05859375 6.5859375 -43.05859375 6.5859375 -39.4375 6.375 C-38.23996094 6.30023438 -37.04242188 6.22546875 -35.80859375 6.1484375 C-34.41833984 6.07496094 -34.41833984 6.07496094 -33 6 C-33 5.34 -33 4.68 -33 4 C-29.00170835 3.32281186 -25.00113468 2.66016492 -21 2 C-19.87464844 1.80921875 -18.74929688 1.6184375 -17.58984375 1.421875 C-11.642717 0.44807647 -6.02622377 -0.2363225 0 0 Z " fill="#BCBCBC" transform="translate(455,201)"/>
<path d="M0 0 C-0.99 0.99 -1.98 1.98 -3 3 C-0.69 3 1.62 3 4 3 C4 3.33 4 3.66 4 4 C-0.18636772 4.98405017 -4.37428012 5.96136555 -8.5625 6.9375 C-9.74392578 7.21529297 -10.92535156 7.49308594 -12.14257812 7.77929688 C-17.74803876 9.08252722 -23.28054339 10.33650944 -29 11 C-26 9 -26 9 -24 9 C-24 8.01 -24 7.02 -24 6 C-24.99 5.67 -25.98 5.34 -27 5 C-22.53897192 3.35646334 -18.11988125 2.3867258 -13.46484375 1.51171875 C-11.29022115 1.06025193 -9.23737851 0.48936967 -7.125 -0.1875 C-4.14158571 -0.96318772 -2.81077321 -1.12430928 0 0 Z " fill="#BABABA" transform="translate(249,240)"/>
<path d="M0 0 C-0.33 1.32 -0.66 2.64 -1 4 C-2.83072917 4.45768229 -4.66145833 4.91536458 -6.4921875 5.37304688 C-7.60980469 5.65245117 -7.60980469 5.65245117 -8.75 5.9375 C-10.85904948 6.46476237 -12.96809896 6.99202474 -15.07714844 7.51928711 C-16.4233959 7.85584897 -17.76732053 8.20177688 -19.109375 8.5546875 C-21.21684578 9.05107524 -23.08831208 9.09852813 -25.25 9.0625 C-27.10625 9.0315625 -27.10625 9.0315625 -29 9 C-29 8.34 -29 7.68 -29 7 C-30.98 7 -32.96 7 -35 7 C-31.7641006 5.17596211 -28.73634348 4.40954282 -25.09765625 3.7109375 C-23.96005859 3.49179688 -22.82246094 3.27265625 -21.65039062 3.046875 C-19.87438477 2.71429688 -19.87438477 2.71429688 -18.0625 2.375 C-16.29229492 2.03082031 -16.29229492 2.03082031 -14.48632812 1.6796875 C-4.87971526 -0.14703685 -4.87971526 -0.14703685 0 0 Z " fill="#C4C4C4" transform="translate(347,219)"/>
<path d="M0 0 C0.33 0.66 0.66 1.32 1 2 C1.66 2 2.32 2 3 2 C4.02941422 5.08824265 4.12907717 7.23705582 4.1328125 10.47265625 C4.13474609 12.06883789 4.13474609 12.06883789 4.13671875 13.69726562 C4.13285156 14.80779297 4.12898438 15.91832031 4.125 17.0625 C4.12886719 18.17689453 4.13273437 19.29128906 4.13671875 20.43945312 C4.13542969 21.50228516 4.13414062 22.56511719 4.1328125 23.66015625 C4.13168457 24.63605713 4.13055664 25.61195801 4.12939453 26.61743164 C4 29 4 29 3 31 C-0.0625 31.625 -0.0625 31.625 -3 32 C-3.33 31.01 -3.66 30.02 -4 29 C-3.34 29 -2.68 29 -2 29 C-0.9402011 25.82060331 -0.89975242 23.60937968 -0.9375 20.2734375 C-0.94523437 19.1596875 -0.95296875 18.0459375 -0.9609375 16.8984375 C-0.98027344 15.15433594 -0.98027344 15.15433594 -1 13.375 C-1.02538152 11.0703581 -1.04645782 8.76566333 -1.0625 6.4609375 C-1.07410156 5.43790527 -1.08570313 4.41487305 -1.09765625 3.36083984 C-1 1 -1 1 0 0 Z " fill="#E2E2E2" transform="translate(334,173)"/>
<path d="M0 0 C0.99 0 1.98 0 3 0 C2.3996244 4.72343697 1.02469336 8.82741619 -0.8125 13.1875 C-1.35426275 14.50463411 -1.89461572 15.82234892 -2.43359375 17.140625 C-2.69897949 17.78837891 -2.96436523 18.43613281 -3.23779297 19.10351562 C-4.94710902 23.35654799 -6.47280911 27.67894812 -8 32 C-8.33 31.01 -8.66 30.02 -9 29 C-8.67 28.34 -8.34 27.68 -8 27 C-8.66 27 -9.32 27 -10 27 C-10 27.66 -10 28.32 -10 29 C-10.66 29 -11.32 29 -12 29 C-10.35100674 22.16354879 -7.73018897 15.84016002 -4.875 9.4375 C-4.33359375 8.22247803 -4.33359375 8.22247803 -3.78125 6.98291016 C-1.141524 1.141524 -1.141524 1.141524 0 0 Z " fill="#B5B5B5" transform="translate(166,96)"/>
<path d="M0 0 C2.0625 0.4375 2.0625 0.4375 4 1 C5.0390378 5.42682491 5.31592951 9.78934632 5.5625 14.3125 C5.60568359 15.05306641 5.64886719 15.79363281 5.69335938 16.55664062 C5.79870432 18.37091464 5.89978316 20.1854355 6 22 C5.01 22 4.02 22 3 22 C2.67 24.97 2.34 27.94 2 31 C1.67 31 1.34 31 1 31 C1 26.05 1 21.1 1 16 C0.01 16 -0.98 16 -2 16 C-1.85975781 13.52039864 -1.7130815 11.04147598 -1.5625 8.5625 C-1.52318359 7.85544922 -1.48386719 7.14839844 -1.44335938 6.41992188 C-1.11328125 1.11328125 -1.11328125 1.11328125 0 0 Z " fill="#DFDFDF" transform="translate(381,155)"/>
<path d="M0 0 C1.9375 0.1875 1.9375 0.1875 4 1 C6.3941573 4.27621525 6.54485833 8.05543885 7 12 C8.11375 10.7625 8.11375 10.7625 9.25 9.5 C12 7 12 7 16 7 C15.67 8.32 15.34 9.64 15 11 C15.66 11 16.32 11 17 11 C17.33 11.99 17.66 12.98 18 14 C14 14 10 14 6 14 C5.896875 14.763125 5.79375 15.52625 5.6875 16.3125 C4.95635961 19.17059424 4.23048087 20.15742885 2 22 C2.309375 21.21625 2.61875 20.4325 2.9375 19.625 C4.26335807 15.10148422 4.64811085 10.68568186 5 6 C4.67 7.65 4.34 9.3 4 11 C3.34 11 2.68 11 2 11 C1.67 9.68 1.34 8.36 1 7 C0.67 8.65 0.34 10.3 0 12 C-0.33 12 -0.66 12 -1 12 C-1.02687279 10.18757948 -1.04633715 8.37504767 -1.0625 6.5625 C-1.07410156 5.55316406 -1.08570313 4.54382813 -1.09765625 3.50390625 C-1 1 -1 1 0 0 Z " fill="#979797" transform="translate(212,198)"/>
<path d="M0 0 C1.65 0.33 3.3 0.66 5 1 C5 1.66 5 2.32 5 3 C6.32 2.67 7.64 2.34 9 2 C8.75464515 6.17103241 8.31454995 8.55592948 5.875 12 C3 14 3 14 -0.625 14.125 C-4 13 -4 13 -5.9375 10.875 C-7.20954794 7.43298792 -7.21421084 4.64158426 -7 1 C-6.67 1 -6.34 1 -6 1 C-6 2.98 -6 4.96 -6 7 C-3.36 7 -0.72 7 2 7 C2.33 5.35 2.66 3.7 3 2 C2.01 1.34 1.02 0.68 0 0 Z " fill="#BBBBBB" transform="translate(364,184)"/>
<path d="M0 0 C1.65 0.33 3.3 0.66 5 1 C3.94513949 7.12096691 2.34782974 11.75506674 -1 17 C-1.33 16.01 -1.66 15.02 -2 14 C-5.465 15.485 -5.465 15.485 -9 17 C-9 16.34 -9 15.68 -9 15 C-8.34 14.67 -7.68 14.34 -7 14 C-6.56586299 12.33024225 -6.1327976 10.660193 -5.70703125 8.98828125 C-4.47131159 5.51324641 -2.2475813 2.89819694 0 0 Z " fill="#CBCBCB" transform="translate(441,158)"/>
<path d="M0 0 C0.73959847 8.50538244 -3.12086447 15.62964249 -7 23 C-8.5625 21.9375 -8.5625 21.9375 -10 20 C-9.75 16.625 -9.75 16.625 -9 13 C-8.814375 12.030625 -8.62875 11.06125 -8.4375 10.0625 C-8.293125 9.381875 -8.14875 8.70125 -8 8 C-7.34 8 -6.68 8 -6 8 C-5.731875 7.236875 -5.46375 6.47375 -5.1875 5.6875 C-2.6744186 0 -2.6744186 0 0 0 Z " fill="#D4D4D4" transform="translate(137,180)"/>
<path d="M0 0 C4.875 1.875 4.875 1.875 6 3 C6.07313567 5.53049402 6.09247527 8.03304837 6.0625 10.5625 C6.05798828 11.27341797 6.05347656 11.98433594 6.04882812 12.71679688 C6.03700864 14.47790013 6.01907263 16.23896036 6 18 C6.99 18.33 7.98 18.66 9 19 C7.68 19 6.36 19 5 19 C4.67 14.38 4.34 9.76 4 5 C2.68 5.33 1.36 5.66 0 6 C0.66 6.33 1.32 6.66 2 7 C1.67 8.32 1.34 9.64 1 11 C0.67 10.67 0.34 10.34 0 10 C-1.485 12.475 -1.485 12.475 -3 15 C-3.33 14.34 -3.66 13.68 -4 13 C-3.67 12.34 -3.34 11.68 -3 11 C-3.99 11 -4.98 11 -6 11 C-6 11.66 -6 12.32 -6 13 C-6.66 13 -7.32 13 -8 13 C-8.33 13.99 -8.66 14.98 -9 16 C-8.53198701 11.00786149 -6.08284263 6.87036007 -3 3 C-2.34 3 -1.68 3 -1 3 C-0.67 2.01 -0.34 1.02 0 0 Z " fill="#AFAFAF" transform="translate(256,193)"/>
<path d="M0 0 C7.9983079 0.02246716 14.31885347 0.04109496 20.546875 5.4296875 C22 7 22 7 24 10 C23.01 10 22.02 10 21 10 C21 9.34 21 8.68 21 8 C20.34 8 19.68 8 19 8 C19.33 9.32 19.66 10.64 20 12 C19.53851563 11.65066406 19.07703125 11.30132812 18.6015625 10.94140625 C13.13931469 7.13078673 8.61257468 6.14905394 2 6 C2 5.67 2 5.34 2 5 C3.98 4.34 5.96 3.68 8 3 C5.36 3 2.72 3 0 3 C0 2.01 0 1.02 0 0 Z " fill="#B3B3B3" transform="translate(125,218)"/>
<path d="M0 0 C0.61875 0.33 1.2375 0.66 1.875 1 C3.91018344 2.14193235 3.91018344 2.14193235 6 2 C6.50904657 3.87256417 7.00682455 5.74819341 7.5 7.625 C7.7784375 8.66914063 8.056875 9.71328125 8.34375 10.7890625 C8.99118596 13.95687418 9.1161292 16.77741467 9 20 C8.34 20 7.68 20 7 20 C6.67 21.65 6.34 23.3 6 25 C5.67 25 5.34 25 5 25 C4.70996094 23.24623047 4.70996094 23.24623047 4.4140625 21.45703125 C4.15133314 19.90880468 3.88829608 18.3606303 3.625 16.8125 C3.49867188 16.04357422 3.37234375 15.27464844 3.2421875 14.48242188 C2.54067351 10.39610286 1.61399419 6.83849924 0 3 C0 2.01 0 1.02 0 0 Z " fill="#ABABAB" transform="translate(165,186)"/>
<path d="M0 0 C0.33 0.66 0.66 1.32 1 2 C3.02463255 2.65213292 3.02463255 2.65213292 5 3 C3.92338719 4.4425402 2.83839897 5.87883161 1.75 7.3125 C1.14671875 8.11300781 0.5434375 8.91351563 -0.078125 9.73828125 C-1.97607261 11.97184154 -3.44160143 13.57030668 -6 15 C-8.796875 15.07421875 -8.796875 15.07421875 -11.75 14.6875 C-12.73484375 14.56761719 -13.7196875 14.44773438 -14.734375 14.32421875 C-15.48203125 14.21722656 -16.2296875 14.11023438 -17 14 C-17 13.67 -17 13.34 -17 13 C-16.0925 12.855625 -15.185 12.71125 -14.25 12.5625 C-13.1775 12.376875 -12.105 12.19125 -11 12 C-10.236875 11.87625 -9.47375 11.7525 -8.6875 11.625 C-8.130625 11.41875 -7.57375 11.2125 -7 11 C-6.67 10.01 -6.34 9.02 -6 8 C-5.01 8.33 -4.02 8.66 -3 9 C-3 8.34 -3 7.68 -3 7 C-3.66 7 -4.32 7 -5 7 C-4.67 5.35 -4.34 3.7 -4 2 C-3.34 2.33 -2.68 2.66 -2 3 C-1.34 2.01 -0.68 1.02 0 0 Z " fill="#CECECE" transform="translate(254,211)"/>
<path d="M0 0 C1.32 0.99 2.64 1.98 4 3 C4.33 2.01 4.66 1.02 5 0 C5.66 1.32 6.32 2.64 7 4 C7.66 3.34 8.32 2.68 9 2 C9.99 3.32 10.98 4.64 12 6 C12.66 4.35 13.32 2.7 14 1 C15.18414294 4.55242882 14.69535532 5.69830562 13.5625 9.1875 C13.27503906 10.08855469 12.98757812 10.98960937 12.69140625 11.91796875 C12.46324219 12.60503906 12.23507813 13.29210937 12 14 C11.34 13.01 10.68 12.02 10 11 C8.35 12.32 6.7 13.64 5 15 C4.35163958 13.25093469 3.70641216 11.50070781 3.0625 9.75 C2.70285156 8.77546875 2.34320313 7.8009375 1.97265625 6.796875 C1.18620345 4.53542839 0.52748399 2.33203448 0 0 Z " fill="#BCBCBC" transform="translate(118,196)"/>
<path d="M0 0 C-0.625 1.875 -0.625 1.875 -2 4 C-6.45463449 5.8560977 -10.58089831 6.35363575 -15.375 6.625 C-17.24285156 6.73714844 -17.24285156 6.73714844 -19.1484375 6.8515625 C-20.55996094 6.92503906 -20.55996094 6.92503906 -22 7 C-21.34 6.01 -20.68 5.02 -20 4 C-20.66 3.34 -21.32 2.68 -22 2 C-19.45887768 1.66198848 -16.91723254 1.32946621 -14.375 1 C-13.66214844 0.90460938 -12.94929688 0.80921875 -12.21484375 0.7109375 C-8.11178391 0.18393899 -4.14754258 -0.10466984 0 0 Z " fill="#B4B4B4" transform="translate(520,175)"/>
<path d="M0 0 C1.65 0.33 3.3 0.66 5 1 C3.86364454 8.71271047 2.61840635 16.37282967 1 24 C0.67 24 0.34 24 0 24 C0.33 20.7 0.66 17.4 1 14 C-0.32 14.33 -1.64 14.66 -3 15 C-2.22095672 4.44191344 -2.22095672 4.44191344 0 0 Z " fill="#BFBFBF" transform="translate(276,168)"/>
<path d="M0 0 C-0.309375 1.134375 -0.61875 2.26875 -0.9375 3.4375 C-2.06931233 7.92461414 -2.59511294 12.39707347 -3 17 C-3.33 16.34 -3.66 15.68 -4 15 C-4.99 15.33 -5.98 15.66 -7 16 C-7 15.01 -7 14.02 -7 13 C-7.66 13 -8.32 13 -9 13 C-9 11.02 -9 9.04 -9 7 C-8.34 7 -7.68 7 -7 7 C-6.9175 6.21625 -6.835 5.4325 -6.75 4.625 C-6 2 -6 2 -4.0625 0.6875 C-2 0 -2 0 0 0 Z " fill="#F7F7F7" transform="translate(289,189)"/>
<path d="M0 0 C0.66 0 1.32 0 2 0 C2.66 0.66 3.32 1.32 4 2 C4.598125 2.268125 5.19625 2.53625 5.8125 2.8125 C8.73571366 4.39938742 10.72540882 6.59904264 13 9 C12.34 11.31 11.68 13.62 11 16 C9.33333333 14.33333333 7.66666667 12.66666667 6 11 C5.0925 10.195625 4.185 9.39125 3.25 8.5625 C0.67857318 5.63393057 0.26739047 3.83259671 0 0 Z " fill="#C8C8C8" transform="translate(144,226)"/>
<path d="M0 0 C2.64 0 5.28 0 8 0 C9 2 9 2 7.9375 5.3125 C6.0589183 9.42297464 3.77613807 11.53395065 0 14 C-1.32 13.67 -2.64 13.34 -4 13 C-2.35 10.69 -0.7 8.38 1 6 C0.34 5.34 -0.32 4.68 -1 4 C-0.360625 3.87625 0.27875 3.7525 0.9375 3.625 C1.9584375 3.315625 1.9584375 3.315625 3 3 C3.33 2.34 3.66 1.68 4 1 C2.68 0.67 1.36 0.34 0 0 Z " fill="#BFBFBF" transform="translate(440,175)"/>
<path d="M0 0 C1.09658936 3.28976808 0.79953138 4.71303767 0 8 C-0.66 8 -1.32 8 -2 8 C-2 8.66 -2 9.32 -2 10 C-4.375 10.625 -4.375 10.625 -7 11 C-7.66 10.34 -8.32 9.68 -9 9 C-8.83048345 5.77918546 -8.18567504 4.23689575 -6.1875 1.6875 C-4 0 -4 0 0 0 Z " fill="#C7C7C7" transform="translate(481,192)"/>
<path d="M0 0 C0.66 0.99 1.32 1.98 2 3 C1.34 3 0.68 3 0 3 C0 3.99 0 4.98 0 6 C0.99 5.01 1.98 4.02 3 3 C3.66 3.33 4.32 3.66 5 4 C3.93446504 5.84373465 2.84696823 7.67479236 1.75 9.5 C1.14671875 10.5209375 0.5434375 11.541875 -0.078125 12.59375 C-1.02945313 13.78484375 -1.02945313 13.78484375 -2 15 C-3.32 15 -4.64 15 -6 15 C-6 14.34 -6 13.68 -6 13 C-6.99 12.67 -7.98 12.34 -9 12 C-8.01 12 -7.02 12 -6 12 C-5.67 10.68 -5.34 9.36 -5 8 C-4.34 8 -3.68 8 -3 8 C-2.690625 7.05125 -2.38125 6.1025 -2.0625 5.125 C-1 2 -1 2 0 0 Z " fill="#B4B4B4" transform="translate(229,215)"/>
<path d="M0 0 C0.33 0 0.66 0 1 0 C1.16677223 8.04212755 0.6466598 15.98603754 0 24 C-0.99 24 -1.98 24 -3 24 C-3 17.4 -3 10.8 -3 4 C-2.34 4 -1.68 4 -1 4 C-0.67 2.68 -0.34 1.36 0 0 Z " fill="#D8D8D8" transform="translate(111,137)"/>
<path d="M0 0 C3.76633202 0.80707115 7.0292389 1.56183541 9.265625 4.875 C9.59046875 5.57625 9.9153125 6.2775 10.25 7 C10.58515625 7.70125 10.9203125 8.4025 11.265625 9.125 C12 11 12 11 12 13 C10.35 13.66 8.7 14.32 7 15 C6.01836578 13.06374902 5.03977546 11.12595461 4.0625 9.1875 C3.51722656 8.10855469 2.97195312 7.02960938 2.41015625 5.91796875 C1 3 1 3 0 0 Z " fill="#C1C1C1" transform="translate(153,161)"/>
<path d="M0 0 C0.33 2.97 0.66 5.94 1 9 C0.01 9.495 0.01 9.495 -1 10 C-1.66 9.67 -2.32 9.34 -3 9 C-3 9.66 -3 10.32 -3 11 C-3.66 11 -4.32 11 -5 11 C-5.33 11.66 -5.66 12.32 -6 13 C-6.99 13.495 -6.99 13.495 -8 14 C-7.67 11.03 -7.34 8.06 -7 5 C-6.34 5 -5.68 5 -5 5 C-4.71125 4.360625 -4.4225 3.72125 -4.125 3.0625 C-3.04730781 1.08673098 -2.41677831 0 0 0 Z " fill="#DBDBDB" transform="translate(129,206)"/>
<path d="M0 0 C1.16095535 2.84961767 1.06567925 3.83945073 -0.125 6.75 C-2 9 -2 9 -4.5625 9.4375 C-7 9 -7 9 -9 7 C-8.64644564 4.73725212 -8.02455574 3.04911148 -7 1 C-4 0 -4 0 0 0 Z " fill="#C6C6C6" transform="translate(504,188)"/>
<path d="M0 0 C0.598125 0.226875 1.19625 0.45375 1.8125 0.6875 C1.8125 3.6875 1.8125 3.6875 0.44921875 5.08203125 C-0.09089844 5.61183594 -0.63101562 6.14164063 -1.1875 6.6875 C-2.3923149 8.94777345 -2.3923149 8.94777345 -3.375 11.375 C-3.71917969 12.18324219 -4.06335938 12.99148437 -4.41796875 13.82421875 C-4.67191406 14.43910156 -4.92585938 15.05398437 -5.1875 15.6875 C-5.5175 14.6975 -5.8475 13.7075 -6.1875 12.6875 C-6.5175 12.0275 -6.8475 11.3675 -7.1875 10.6875 C-7.5175 10.0275 -7.8475 9.3675 -8.1875 8.6875 C-4.23334527 -0.60476361 -4.23334527 -0.60476361 0 0 Z " fill="#B2B2B2" transform="translate(395.1875,165.3125)"/>
<path d="M0 0 C0.66 0.33 1.32 0.66 2 1 C1.67 1.33 1.34 1.66 1 2 C3.97 2.495 3.97 2.495 7 3 C7 3.33 7 3.66 7 4 C5.63875 4.309375 5.63875 4.309375 4.25 4.625 C0.11654062 6.37377127 -0.92107903 8.06489959 -3 12 C-3.82030525 14.32575182 -4.4229209 16.59550374 -5 19 C-5.33 19 -5.66 19 -6 19 C-5.979375 17.9275 -5.95875 16.855 -5.9375 15.75 C-5.79145374 12.23792039 -5.79145374 12.23792039 -6.71875 10.03125 C-7 8 -7 8 -5.56640625 5.859375 C-4.90511719 5.16328125 -4.24382812 4.4671875 -3.5625 3.75 C-2.57443359 2.69039062 -2.57443359 2.69039062 -1.56640625 1.609375 C-1.04949219 1.07828125 -0.53257812 0.5471875 0 0 Z " fill="#B4B4B4" transform="translate(340,126)"/>
<path d="M0 0 C0.99 0 1.98 0 3 0 C3.33 1.32 3.66 2.64 4 4 C5.65 3.67 7.3 3.34 9 3 C8.625 5.4375 8.625 5.4375 8 8 C5.29120665 9.35439668 2.99066732 9.06501451 0 9 C-1.125 6.75 -1.125 6.75 -2 4 C-1.125 1.6875 -1.125 1.6875 0 0 Z " fill="#C3C3C3" transform="translate(200,223)"/>
<path d="M0 0 C0.33 0.99 0.66 1.98 1 3 C1.66 3 2.32 3 3 3 C3.33 5.97 3.66 8.94 4 12 C3.34 11.01 2.68 10.02 2 9 C1.34 10.32 0.68 11.64 0 13 C-1.65 13 -3.3 13 -5 13 C-5 8.25814381 -2.10344762 4.20689523 0 0 Z " fill="#BABABA" transform="translate(279,199)"/>
<path d="M0 0 C0.99 0.33 1.98 0.66 3 1 C3.33 3.64 3.66 6.28 4 9 C3.01 9.495 3.01 9.495 2 10 C2 10.99 2 11.98 2 13 C1.34 13 0.68 13 0 13 C-0.33 12.34 -0.66 11.68 -1 11 C-3.02463255 10.34786708 -3.02463255 10.34786708 -5 10 C-4.67 8.35 -4.34 6.7 -4 5 C-2.02 5.495 -2.02 5.495 0 6 C0 4.02 0 2.04 0 0 Z " fill="#E8E8E8" transform="translate(369,174)"/>
<path d="M0 0 C2 2 2 2 2.125 4.625 C2.08375 5.40875 2.0425 6.1925 2 7 C4.50037734 4.82575883 5.43628586 3.26954202 6 0 C6.66 0.33 7.32 0.66 8 1 C7.67 3.97 7.34 6.94 7 10 C4.69 10.33 2.38 10.66 0 11 C-0.19491452 9.54263913 -0.38069358 8.08405407 -0.5625 6.625 C-0.66691406 5.81289062 -0.77132812 5.00078125 -0.87890625 4.1640625 C-1 2 -1 2 0 0 Z " fill="#F8F8F8" transform="translate(172,204)"/>
<path d="M0 0 C0.66 0.33 1.32 0.66 2 1 C1.50769231 7.4 1.50769231 7.4 -1.0625 10.4375 C-2.0215625 11.2109375 -2.0215625 11.2109375 -3 12 C-2.67 12.66 -2.34 13.32 -2 14 C-1.34 14 -0.68 14 0 14 C0 13.01 0 12.02 0 11 C0.66 11.33 1.32 11.66 2 12 C2.40729228 14.32156597 2.74438677 16.6568787 3 19 C2.34 19 1.68 19 1 19 C1 18.34 1 17.68 1 17 C0.34 17 -0.32 17 -1 17 C-1.33 17.99 -1.66 18.98 -2 20 C-6 13.25 -6 13.25 -6 11 C-5.34 11 -4.68 11 -4 11 C-2.03698408 7.49461443 -1.04097612 3.86648272 0 0 Z " fill="#9D9D9D" transform="translate(168,216)"/>
<path d="M0 0 C-0.3916035 5.95507399 -1.37124595 10.62819824 -4 16 C-4.33 15.01 -4.66 14.02 -5 13 C-4.67 12.34 -4.34 11.68 -4 11 C-4.66 11 -5.32 11 -6 11 C-6 11.66 -6 12.32 -6 13 C-6.66 13 -7.32 13 -8 13 C-7.60157441 11.39120578 -7.18046843 9.78801827 -6.75 8.1875 C-6.51796875 7.29417969 -6.2859375 6.40085937 -6.046875 5.48046875 C-4.97706276 2.94565243 -3.13334711 0 0 0 Z " fill="#BDBDBD" transform="translate(162,112)"/>
<path d="M0 0 C1.65 0.33 3.3 0.66 5 1 C4.625 3.9375 4.625 3.9375 4 7 C3.01 7.495 3.01 7.495 2 8 C1.67 7.67 1.34 7.34 1 7 C0.67 7.66 0.34 8.32 0 9 C-1.32 9 -2.64 9 -4 9 C-3.46930939 5.17902761 -2.50298434 2.93828597 0 0 Z " fill="#D5D5D5" transform="translate(441,158)"/>
<path d="M0 0 C0.99 0.33 1.98 0.66 3 1 C3.33 1.99 3.66 2.98 4 4 C3.01 4.33 2.02 4.66 1 5 C0.30341637 6.65438613 -0.36096883 8.32254318 -1 10 C-2.625 11.8125 -2.625 11.8125 -4 13 C-4.33 12.34 -4.66 11.68 -5 11 C-5.99 11.495 -5.99 11.495 -7 12 C-5.44298069 7.32894208 -2.91552627 3.91294315 0 0 Z " fill="#B7B7B7" transform="translate(110,231)"/>
<path d="M0 0 C0.99 0.495 0.99 0.495 2 1 C2 2.32 2 3.64 2 5 C2.66 5 3.32 5 4 5 C3.67 3.35 3.34 1.7 3 0 C3.66 0 4.32 0 5 0 C5.08153933 1.58246707 5.13943557 3.16616273 5.1875 4.75 C5.22230469 5.63171875 5.25710937 6.5134375 5.29296875 7.421875 C4.94923684 10.44671583 3.99772541 11.75583602 2 14 C0 12 0 12 -0.1953125 9.1796875 C-0.17210937 8.08914062 -0.14890625 6.99859375 -0.125 5.875 C-0.10695312 4.77929688 -0.08890625 3.68359375 -0.0703125 2.5546875 C-0.04710937 1.71164063 -0.02390625 0.86859375 0 0 Z " fill="#F5F5F5" transform="translate(212,204)"/>
<path d="M0 0 C1.5625 1.625 1.5625 1.625 3 4 C2.6875 7.25 2.6875 7.25 2 10 C2.99 9.67 3.98 9.34 5 9 C5 9.66 5 10.32 5 11 C4.21625 10.79375 3.4325 10.5875 2.625 10.375 C1.75875 10.25125 0.8925 10.1275 0 10 C-0.66 10.66 -1.32 11.32 -2 12 C-3 9 -3 9 -2.0625 6.8125 C-1.711875 6.214375 -1.36125 5.61625 -1 5 C-1.99 5 -2.98 5 -4 5 C-4.33 5.66 -4.66 6.32 -5 7 C-5 6.01 -5 5.02 -5 4 C-5.66 3.34 -6.32 2.68 -7 2 C-4.69 1.34 -2.38 0.68 0 0 Z M0 5 C1 7 1 7 1 7 Z " fill="#A7A7A7" transform="translate(174,234)"/>
<path d="M0 0 C-4.24909075 2.46920528 -8.61684128 2.78728685 -13.41796875 3.4375 C-14.69607422 3.7159375 -14.69607422 3.7159375 -16 4 C-16.33 4.66 -16.66 5.32 -17 6 C-15.68 6.66 -14.36 7.32 -13 8 C-16.63 8.33 -20.26 8.66 -24 9 C-23.01 8.67 -22.02 8.34 -21 8 C-21 7.01 -21 6.02 -21 5 C-22.32 4.67 -23.64 4.34 -25 4 C-21.77245186 3.32533254 -18.54273065 2.66169431 -15.3125 2 C-14.40048828 1.80921875 -13.48847656 1.6184375 -12.54882812 1.421875 C-11.66259766 1.24140625 -10.77636719 1.0609375 -9.86328125 0.875 C-9.05157471 0.70742187 -8.23986816 0.53984375 -7.40356445 0.3671875 C-4.89938135 -0.0153713 -2.52924498 -0.06298509 0 0 Z " fill="#A1A1A1" transform="translate(477,181)"/>
<path d="M0 0 C0.33 0 0.66 0 1 0 C1.797837 6.69613196 2.12910853 13.25766581 2 20 C0.68 19.67 -0.64 19.34 -2 19 C-2 16.03 -2 13.06 -2 10 C-1.34 10 -0.68 10 0 10 C0 6.7 0 3.4 0 0 Z " fill="#BFBFBF" transform="translate(111,151)"/>
<path d="M0 0 C2.0625 0.4375 2.0625 0.4375 4 1 C4.95024979 4.69541586 4.95024979 7.30458414 4 11 C3.34 11 2.68 11 2 11 C1.67 9.68 1.34 8.36 1 7 C0.67 8.65 0.34 10.3 0 12 C-0.33 12 -0.66 12 -1 12 C-1.02687279 10.18757948 -1.04633715 8.37504767 -1.0625 6.5625 C-1.07410156 5.55316406 -1.08570313 4.54382813 -1.09765625 3.50390625 C-1 1 -1 1 0 0 Z " fill="#C4C4C4" transform="translate(212,198)"/>
<path d="M0 0 C0.66 0.33 1.32 0.66 2 1 C1.43447641 4.28003681 0.67167078 5.97321527 -2 8 C-5.1875 9.1875 -5.1875 9.1875 -8 10 C-7.67 9.01 -7.34 8.02 -7 7 C-7.99 6.67 -8.98 6.34 -10 6 C-9.36191406 5.65066406 -8.72382813 5.30132812 -8.06640625 4.94140625 C-7.24011719 4.48636719 -6.41382813 4.03132813 -5.5625 3.5625 C-4.73878906 3.11003906 -3.91507812 2.65757812 -3.06640625 2.19140625 C-1.07691202 1.16337603 -1.07691202 1.16337603 0 0 Z " fill="#B7B7B7" transform="translate(426,263)"/>
<path d="M0 0 C0.33 0 0.66 0 1 0 C1 2.31 1 4.62 1 7 C4.0745356 6.2236068 4.0745356 6.2236068 6 4 C8.475 4.99 8.475 4.99 11 6 C8.375 10.875 8.375 10.875 5 12 C5 11.34 5 10.68 5 10 C2.525 9.01 2.525 9.01 0 8 C0 5.36 0 2.72 0 0 Z " fill="#ADADAD" transform="translate(100,256)"/>
<path d="M0 0 C0.33 0.66 0.66 1.32 1 2 C2.98 2 4.96 2 7 2 C6.67 3.32 6.34 4.64 6 6 C2.7 6 -0.6 6 -4 6 C-4 4.35 -4 2.7 -4 1 C-2.68 0.67 -1.36 0.34 0 0 Z " fill="#DFDFDF" transform="translate(439,187)"/>
<path d="M0 0 C0.66 1.32 1.32 2.64 2 4 C2.66 4 3.32 4 4 4 C4.33 6.31 4.66 8.62 5 11 C4.34 10.67 3.68 10.34 3 10 C3 15.94 3 21.88 3 28 C2.67 28 2.34 28 2 28 C1.93941406 26.97519531 1.87882812 25.95039063 1.81640625 24.89453125 C1.73194974 23.53384305 1.64730433 22.17316657 1.5625 20.8125 C1.52318359 20.13896484 1.48386719 19.46542969 1.44335938 18.77148438 C1.21016086 15.09412311 0.74041917 11.60337328 0 8 C-0.11678799 5.32321927 -0.0454506 2.68158543 0 0 Z " fill="#9E9E9E" transform="translate(331,164)"/>
<path d="M0 0 C0.3125 2.6875 0.3125 2.6875 0 6 C-2.46143568 8.9271127 -4.82124178 10.88082786 -8 13 C-7.3920502 8.86594138 -6.09037553 5.61795765 -4 2 C-1 0 -1 0 0 0 Z " fill="#C7C7C7" transform="translate(106,241)"/>
<path d="M0 0 C-0.33 1.65 -0.66 3.3 -1 5 C-4.63 5 -8.26 5 -12 5 C-11.67 4.01 -11.34 3.02 -11 2 C-9.00390625 1.26953125 -9.00390625 1.26953125 -6.5625 0.8125 C-5.75941406 0.65394531 -4.95632812 0.49539062 -4.12890625 0.33203125 C-2 0 -2 0 0 0 Z " fill="#E8E8E8" transform="translate(258,238)"/>
<path d="M0 0 C0.33 0.66 0.66 1.32 1 2 C2.32 2.33 3.64 2.66 5 3 C3.35 5.31 1.7 7.62 0 10 C-1.65 9.01 -3.3 8.02 -5 7 C-4.67 5.35 -4.34 3.7 -4 2 C-3.34 2.33 -2.68 2.66 -2 3 C-1.34 2.01 -0.68 1.02 0 0 Z " fill="#B9B9B9" transform="translate(254,211)"/>
<path d="M0 0 C2 1.625 2 1.625 4 4 C4.25 7.25 4.25 7.25 4 10 C3.34 10 2.68 10 2 10 C1.67 11.65 1.34 13.3 1 15 C0.67 15 0.34 15 0 15 C-0.95348275 10.23258627 -1.16407956 5.84034716 -1 1 C-0.67 0.67 -0.34 0.34 0 0 Z " fill="#C8C8C8" transform="translate(170,196)"/>
<path d="M0 0 C0 0.33 0 0.66 0 1 C-4.29 1.66 -8.58 2.32 -13 3 C-11.35 3.33 -9.7 3.66 -8 4 C-8 4.33 -8 4.66 -8 5 C-12.40914783 6.10228696 -16.48382401 6.07654536 -21 6 C-20.01 5.34 -19.02 4.68 -18 4 C-18.66 3.34 -19.32 2.68 -20 2 C-17.79248152 1.66131223 -15.58394089 1.32928311 -13.375 1 C-12.14523437 0.814375 -10.91546875 0.62875 -9.6484375 0.4375 C-6.3833973 0.04597484 -3.28287549 -0.08080924 0 0 Z " fill="#959595" transform="translate(422,206)"/>
<path d="M0 0 C1 3 1 3 -0.4375 6.1875 C-1.2109375 7.5796875 -1.2109375 7.5796875 -2 9 C-2.66 9 -3.32 9 -4 9 C-4.33 9.66 -4.66 10.32 -5 11 C-5 10.34 -5 9.68 -5 9 C-6.32 9.99 -7.64 10.98 -9 12 C-9.66 11.67 -10.32 11.34 -11 11 C-10.34 9.68 -9.68 8.36 -9 7 C-8.34 7 -7.68 7 -7 7 C-5.5412312 5.70921589 -5.5412312 5.70921589 -4 4 C-2 2 -2 2 0 0 Z " fill="#989898" transform="translate(189,203)"/>
<path d="M0 0 C0 0.33 0 0.66 0 1 C-3.83724172 1.90413673 -7.37502274 2.10576898 -11.3125 2.0625 C-12.38113281 2.05347656 -13.44976562 2.04445312 -14.55078125 2.03515625 C-15.35902344 2.02355469 -16.16726563 2.01195312 -17 2 C-16 0 -16 0 -13.25 -1.125 C-8.05847853 -2.52271732 -4.88897383 -2.23495947 0 0 Z " fill="#C2C2C2" transform="translate(474,186)"/>
<path d="M0 0 C1.20076172 0.06960937 1.20076172 0.06960937 2.42578125 0.140625 C3.23402344 0.17671875 4.04226563 0.2128125 4.875 0.25 C5.79732422 0.31960937 5.79732422 0.31960937 6.73828125 0.390625 C6.40828125 1.710625 6.07828125 3.030625 5.73828125 4.390625 C2.10828125 4.390625 -1.52171875 4.390625 -5.26171875 4.390625 C-2.26171875 0.390625 -2.26171875 0.390625 0 0 Z " fill="#E2E2E2" transform="translate(282.26171875,231.609375)"/>
<path d="M0 0 C-4.45566423 3.25915319 -8.48109491 3.70038923 -13.8125 4.1875 C-14.99489258 4.3102832 -14.99489258 4.3102832 -16.20117188 4.43554688 C-18.13302376 4.63458616 -20.06639413 4.81879107 -22 5 C-19.28412407 1.22323503 -15.29414644 0.97587885 -11 0.25 C-10.27554687 0.11207031 -9.55109375 -0.02585938 -8.8046875 -0.16796875 C-5.42697957 -0.77246629 -3.3032373 -1.1010791 0 0 Z " fill="#FBFBFB" transform="translate(405,210)"/>
<path d="M0 0 C1.8871875 0.061875 1.8871875 0.061875 3.8125 0.125 C3.8125 0.455 3.8125 0.785 3.8125 1.125 C2.843125 1.24875 1.87375 1.3725 0.875 1.5 C-0.6409375 1.809375 -0.6409375 1.809375 -2.1875 2.125 C-2.5175 2.785 -2.8475 3.445 -3.1875 4.125 C-2.1975 4.455 -1.2075 4.785 -0.1875 5.125 C-0.785625 5.393125 -1.38375 5.66125 -2 5.9375 C-4.15974808 7.10993467 -5.54540256 8.31869282 -7.1875 10.125 C-7.1875 7.45833333 -7.1875 4.79166667 -7.1875 2.125 C-4.09861478 0.06574319 -3.47814073 -0.1140374 0 0 Z " fill="#AAAAAA" transform="translate(306.1875,182.875)"/>
<path d="M0 0 C0 0.33 0 0.66 0 1 C2.31 1.33 4.62 1.66 7 2 C7 2.33 7 2.66 7 3 C2.71 3.66 -1.58 4.32 -6 5 C-5.67 3.68 -5.34 2.36 -5 1 C-6.98 1.33 -8.96 1.66 -11 2 C-6.98764085 -0.6749061 -4.6342454 -1.48957888 0 0 Z " fill="#B2B2B2" transform="translate(263,237)"/>
<path d="M0 0 C-0.598125 0.268125 -1.19625 0.53625 -1.8125 0.8125 C-3.97224808 1.98493467 -5.35790256 3.19369282 -7 5 C-6.34 5.33 -5.68 5.66 -5 6 C-7.31 6.33 -9.62 6.66 -12 7 C-11.67 6.01 -11.34 5.02 -11 4 C-13.64 4 -16.28 4 -19 4 C-19 3.67 -19 3.34 -19 3 C-16.77228658 2.49356447 -14.54275924 1.9951038 -12.3125 1.5 C-10.45044922 1.08234375 -10.45044922 1.08234375 -8.55078125 0.65625 C-5.57601782 0.10645874 -3.00631398 -0.13795705 0 0 Z " fill="#A2A2A2" transform="translate(300,228)"/>
<path d="M0 0 C2 3 2 3 2 5 C2.99 5 3.98 5 5 5 C5.33 6.32 5.66 7.64 6 9 C3.69 9 1.38 9 -1 9 C-1.33 6.69 -1.66 4.38 -2 2 C-1.34 2 -0.68 2 0 2 C0 1.34 0 0.68 0 0 Z " fill="#EBEBEB" transform="translate(218,223)"/>
<path d="M0 0 C1.65 1.65 3.3 3.3 5 5 C4.67 5.66 4.34 6.32 4 7 C4.66 7.33 5.32 7.66 6 8 C5.01 8.66 4.02 9.32 3 10 C2.67 9.01 2.34 8.02 2 7 C1.01 6.67 0.02 6.34 -1 6 C-1.99 6.495 -1.99 6.495 -3 7 C-2.625 4.0625 -2.625 4.0625 -2 1 C-1.34 0.67 -0.68 0.34 0 0 Z " fill="#E8E8E8" transform="translate(270,202)"/>
<path d="M0 0 C2.4375 0.625 2.4375 0.625 5 2 C5.8125 5.125 5.8125 5.125 6 8 C5.34 8 4.68 8 4 8 C3.71125 8.639375 3.4225 9.27875 3.125 9.9375 C2 12 2 12 0 13 C0.32552083 11.01432292 0.65104167 9.02864583 0.9765625 7.04296875 C1.19577848 4.68244176 1.19577848 4.68244176 -1 2 C-0.67 1.34 -0.34 0.68 0 0 Z " fill="#E4E4E4" transform="translate(185,195)"/>
<path d="M0 0 C2 3.75 2 3.75 2 6 C1.34 6 0.68 6 0 6 C-0.33 8.31 -0.66 10.62 -1 13 C-3.64465038 9.8745041 -4.84414715 6.91211733 -6 3 C-4.02 3.99 -4.02 3.99 -2 5 C-2 4.34 -2 3.68 -2 3 C-1.34 3 -0.68 3 0 3 C0 2.01 0 1.02 0 0 Z " fill="#C5C5C5" transform="translate(364,237)"/>
<path d="M0 0 C0 0.66 0 1.32 0 2 C-6.07027358 4.1583195 -11.59370576 4.20852314 -18 4 C-17.67 3.34 -17.34 2.68 -17 2 C-14.19921875 1.3671875 -14.19921875 1.3671875 -10.6875 0.875 C-9.53636719 0.70742187 -8.38523437 0.53984375 -7.19921875 0.3671875 C-4 0 -4 0 0 0 Z " fill="#E4E4E4" transform="translate(426,206)"/>
<path d="M0 0 C1.16402344 -0.03867188 1.16402344 -0.03867188 2.3515625 -0.078125 C3.01929688 0.03015625 3.68703125 0.1384375 4.375 0.25 C5.035 1.24 5.695 2.23 6.375 3.25 C2.70089215 4.42571451 -0.79429183 4.32366746 -4.625 4.25 C-4.625 3.59 -4.625 2.93 -4.625 2.25 C-5.945 1.92 -7.265 1.59 -8.625 1.25 C-5.70881479 0.42441332 -3.02964506 0.06079555 0 0 Z " fill="#DDDDDD" transform="translate(430.625,203.75)"/>
<path d="M0 0 C0.66 0.66 1.32 1.32 2 2 C2.99 2 3.98 2 5 2 C4.34 4.64 3.68 7.28 3 10 C2.67 10 2.34 10 2 10 C1.67 8.35 1.34 6.7 1 5 C0.67 5.99 0.34 6.98 0 8 C-0.99 9.485 -0.99 9.485 -2 11 C-2.66 11 -3.32 11 -4 11 C-4.26795363 6.0428578 -2.7333905 4.10008575 0 0 Z " fill="#A7A7A7" transform="translate(178,200)"/>
<path d="M0 0 C1.98 0 3.96 0 6 0 C6 0.99 6 1.98 6 3 C1.8794254 4.99785435 -1.45194365 5.17835515 -6 5 C-5.34 4.01 -4.68 3.02 -4 2 C-2.68 2 -1.36 2 0 2 C0 1.34 0 0.68 0 0 Z " fill="#F4F4F4" transform="translate(219,246)"/>
<path d="M0 0 C0.66 0.33 1.32 0.66 2 1 C1.125 4.875 1.125 4.875 0 6 C0.99 6.66 1.98 7.32 3 8 C1.02 8.66 -0.96 9.32 -3 10 C-3.66 9.34 -4.32 8.68 -5 8 C-5.66 7.67 -6.32 7.34 -7 7 C-4.66666667 4.66666667 -2.33333333 2.33333333 0 0 Z " fill="#C9C9C9" transform="translate(322,191)"/>
<path d="M0 0 C0 0.66 0 1.32 0 2 C-0.99 2.66 -1.98 3.32 -3 4 C-2.67 5.98 -2.34 7.96 -2 10 C-3.65 10.66 -5.3 11.32 -7 12 C-7.48842105 4.67368421 -7.48842105 4.67368421 -5.1875 1.5 C-3 0 -3 0 0 0 Z " fill="#BABABA" transform="translate(202,221)"/>
<path d="M0 0 C-0.375 1.9375 -0.375 1.9375 -1 4 C-3.70879335 5.35439668 -6.00933268 5.06501451 -9 5 C-9.33 3.68 -9.66 2.36 -10 1 C-6.59437148 0.22157062 -3.49234244 -0.09978121 0 0 Z " fill="#A7A7A7" transform="translate(347,219)"/>
<path d="M0 0 C0.33 0 0.66 0 1 0 C1.25 5.625 1.25 5.625 -1 9 C-1.66 9 -2.32 9 -3 9 C-3.33 9.66 -3.66 10.32 -4 11 C-5.125 8.1875 -5.125 8.1875 -6 5 C-5.34 4.01 -4.68 3.02 -4 2 C-3.01 2.33 -2.02 2.66 -1 3 C-0.67 2.01 -0.34 1.02 0 0 Z " fill="#ACACAC" transform="translate(333,193)"/>
<path d="M0 0 C1.98 0.99 1.98 0.99 4 2 C4.33 1.34 4.66 0.68 5 0 C5.66 0.66 6.32 1.32 7 2 C6.34 3.98 5.68 5.96 5 8 C1.125 7.125 1.125 7.125 0 6 C-0.04080783 4.00041636 -0.04254356 1.99954746 0 0 Z " fill="#BFBFBF" transform="translate(381,186)"/>
<path d="M0 0 C3.465 1.485 3.465 1.485 7 3 C6.67 3.99 6.34 4.98 6 6 C0.46153846 6.36923077 0.46153846 6.36923077 -1.875 4.5 C-2.24625 4.005 -2.6175 3.51 -3 3 C-2.34 3 -1.68 3 -1 3 C-0.67 2.01 -0.34 1.02 0 0 Z " fill="#C4C4C4" transform="translate(391,185)"/>
<path d="M0 0 C1.65 0.99 3.3 1.98 5 3 C5.33 2.34 5.66 1.68 6 1 C5.67 3.31 5.34 5.62 5 8 C4.34 7.34 3.68 6.68 3 6 C2.01 6.33 1.02 6.66 0 7 C-1.21869929 9.50447516 -1.21869929 9.50447516 -2 12 C-3.15957207 8.52128379 -2.77456651 7.65780355 -1.5625 4.3125 C-1.13130859 3.10013672 -1.13130859 3.10013672 -0.69140625 1.86328125 C-0.46324219 1.24839844 -0.23507813 0.63351563 0 0 Z " fill="#A5A5A5" transform="translate(133,176)"/>
<path d="M0 0 C0.66 0.66 1.32 1.32 2 2 C-2.29 2.66 -6.58 3.32 -11 4 C-11 3.01 -11 2.02 -11 1 C-3.36565097 -1.49584488 -3.36565097 -1.49584488 0 0 Z " fill="#A0A0A0" transform="translate(376,215)"/>
<path d="M0 0 C2.6875 -0.3125 2.6875 -0.3125 6 0 C8.875 2.5 8.875 2.5 11 5 C10.67 5.99 10.34 6.98 10 8 C9.01 7.01 8.02 6.02 7 5 C6.67 6.32 6.34 7.64 6 9 C5.34 8.01 4.68 7.02 4 6 C3.01 6 2.02 6 1 6 C1 5.34 1 4.68 1 4 C2.32 4 3.64 4 5 4 C5 3.34 5 2.68 5 2 C3.35 1.67 1.7 1.34 0 1 C0 0.67 0 0.34 0 0 Z " fill="#8A8A8A" transform="translate(362,169)"/>
<path d="M0 0 C-0.66 1.32 -1.32 2.64 -2 4 C-4.31 4 -6.62 4 -9 4 C-9 3.34 -9 2.68 -9 2 C-9.66 1.67 -10.32 1.34 -11 1 C-7.26562152 0.12132271 -3.83225427 -0.08912219 0 0 Z " fill="#C8C8C8" transform="translate(520,175)"/>
<path d="M0 0 C0.66 0 1.32 0 2 0 C2 2.31 2 4.62 2 7 C1.34 7 0.68 7 0 7 C0 7.66 0 8.32 0 9 C-1.32 8.67 -2.64 8.34 -4 8 C-3.67 7.01 -3.34 6.02 -3 5 C-2.34 5 -1.68 5 -1 5 C-0.67 3.35 -0.34 1.7 0 0 Z " fill="#EEEEEE" transform="translate(138,170)"/>
<path d="M0 0 C0.99 0 1.98 0 3 0 C2.45660208 4.56454251 1.20536179 7.9728176 -1 12 C-1.33 12 -1.66 12 -2 12 C-1.85962479 10.18706911 -1.71255111 8.3746557 -1.5625 6.5625 C-1.48128906 5.55316406 -1.40007812 4.54382813 -1.31640625 3.50390625 C-1 1 -1 1 0 0 Z " fill="#B6B6B6" transform="translate(166,96)"/>
<path d="M0 0 C1.32 0.99 2.64 1.98 4 3 C4.33 2.01 4.66 1.02 5 0 C6.5625 2.3125 6.5625 2.3125 8 5 C7.67 5.99 7.34 6.98 7 8 C6.01 7.67 5.02 7.34 4 7 C3.67 7.66 3.34 8.32 3 9 C0 3.375 0 3.375 0 0 Z " fill="#949494" transform="translate(118,196)"/>
<path d="M0 0 C0.33 0 0.66 0 1 0 C1 1.98 1 3.96 1 6 C2.32 6 3.64 6 5 6 C5 6.66 5 7.32 5 8 C5.99 8.33 6.98 8.66 8 9 C7.34 9.66 6.68 10.32 6 11 C4.68 11 3.36 11 2 11 C-0.32590854 7.36576791 -0.16265833 4.22911669 0 0 Z " fill="#B4B4B4" transform="translate(357,185)"/>
<path d="M0 0 C0.3125 2.3125 0.3125 2.3125 0 5 C-2.5 6.8125 -2.5 6.8125 -5 8 C-5 5.69 -5 3.38 -5 1 C-3 0 -3 0 0 0 Z " fill="#E5E5E5" transform="translate(277,182)"/>
<path d="M0 0 C1.25009054 2.50018108 0.86733449 3.33935278 0.1875 6 C0.01605469 6.70125 -0.15539062 7.4025 -0.33203125 8.125 C-1 10 -1 10 -3 12 C-3 10.35 -3 8.7 -3 7 C-3.66 7 -4.32 7 -5 7 C-4.75 4.625 -4.75 4.625 -4 2 C-1.9375 0.6875 -1.9375 0.6875 0 0 Z " fill="#C7C7C7" transform="translate(392,169)"/>
<path d="M0 0 C0.99 0.33 1.98 0.66 3 1 C2.67 2.65 2.34 4.3 2 6 C0.68 6 -0.64 6 -2 6 C-2 5.34 -2 4.68 -2 4 C-2.99 3.67 -3.98 3.34 -5 3 C-4.01 3 -3.02 3 -2 3 C-2 2.34 -2 1.68 -2 1 C-1.34 0.67 -0.68 0.34 0 0 Z " fill="#C6C6C6" transform="translate(225,224)"/>
<path d="M0 0 C0.66 0 1.32 0 2 0 C5.11450382 4.15267176 5.11450382 4.15267176 4.6875 7.3125 C4.460625 7.869375 4.23375 8.42625 4 9 C3.01 8.67 2.02 8.34 1 8 C-0.35439668 5.29120665 -0.06501451 2.99066732 0 0 Z " fill="#EAEAEA" transform="translate(165,180)"/>
<path d="M0 0 C0.66 0.33 1.32 0.66 2 1 C0.6190998 4.33717549 -0.8201238 6.22301036 -4 8 C-6.25 7.6875 -6.25 7.6875 -8 7 C-5.53058944 4.40062046 -2.81939117 2.20979308 0 0 Z " fill="#B8B8B8" transform="translate(444,181)"/>
<path d="M0 0 C2.97 0 5.94 0 9 0 C8.67 0.99 8.34 1.98 8 3 C7.01 3 6.02 3 5 3 C5 3.66 5 4.32 5 5 C3.35 5 1.7 5 0 5 C0 3.33333333 0 1.66666667 0 0 Z " fill="#D2D2D2" transform="translate(493,178)"/>
<path d="M0 0 C2 2 2 2 2.3125 4.5 C2.209375 5.325 2.10625 6.15 2 7 C1.01 7.66 0.02 8.32 -1 9 C-1.66 8.34 -2.32 7.68 -3 7 C-3.66 6.67 -4.32 6.34 -5 6 C-3.35 4.02 -1.7 2.04 0 0 Z " fill="#C3C3C3" transform="translate(187,228)"/>
<path d="M0 0 C2.64 0 5.28 0 8 0 C7.34 1.32 6.68 2.64 6 4 C4.02 4 2.04 4 0 4 C-0.33 3.34 -0.66 2.68 -1 2 C-0.67 1.34 -0.34 0.68 0 0 Z " fill="#ECECEC" transform="translate(487,179)"/>
<path d="M0 0 C3.465 1.485 3.465 1.485 7 3 C7 3.99 7 4.98 7 6 C4.69 5.67 2.38 5.34 0 5 C0 3.35 0 1.7 0 0 Z " fill="#CFCFCF" transform="translate(98,263)"/>
<path d="M0 0 C0.66 0 1.32 0 2 0 C2 1.98 2 3.96 2 6 C2.66 6.33 3.32 6.66 4 7 C2.68 7.33 1.36 7.66 0 8 C-1.125 6.25 -1.125 6.25 -2 4 C-1.125 1.75 -1.125 1.75 0 0 Z " fill="#F8F8F8" transform="translate(200,223)"/>
<path d="M0 0 C1.65 0.33 3.3 0.66 5 1 C5.33 2.65 5.66 4.3 6 6 C5.67 5.01 5.34 4.02 5 3 C3.68 3.99 2.36 4.98 1 6 C0.34 5.67 -0.32 5.34 -1 5 C-0.67 3.35 -0.34 1.7 0 0 Z " fill="#CACACA" transform="translate(247,147)"/>
<path d="M0 0 C1 4 1 4 0 6 C0.99 6 1.98 6 3 6 C2.625 8.9375 2.625 8.9375 2 12 C1.01 12.495 1.01 12.495 0 13 C0 11.35 0 9.7 0 8 C-0.99 8.495 -0.99 8.495 -2 9 C-1.34 6.03 -0.68 3.06 0 0 Z " fill="#919191" transform="translate(379,165)"/>
<path d="M0 0 C0.66 0.33 1.32 0.66 2 1 C1.67 1.33 1.34 1.66 1 2 C3.97 2.495 3.97 2.495 7 3 C7 3.33 7 3.66 7 4 C6.05125 4.309375 5.1025 4.61875 4.125 4.9375 C1.13919592 5.87394742 1.13919592 5.87394742 -1 7 C-1 6.34 -1 5.68 -1 5 C-1.99 4.67 -2.98 4.34 -4 4 C-2.68 2.68 -1.36 1.36 0 0 Z " fill="#9D9D9D" transform="translate(340,126)"/>
<path d="M0 0 C0.66 0.66 1.32 1.32 2 2 C2.99 1.67 3.98 1.34 5 1 C4.67 2.65 4.34 4.3 4 6 C3.34 6 2.68 6 2 6 C2 5.34 2 4.68 2 4 C0.35 4.66 -1.3 5.32 -3 6 C-2.01 4.02 -1.02 2.04 0 0 Z " fill="#A7A7A7" transform="translate(207,222)"/>
<path d="M0 0 C0 1.98 0 3.96 0 6 C-0.99 6.33 -1.98 6.66 -3 7 C-3 5.68 -3 4.36 -3 3 C-3.99 2.67 -4.98 2.34 -6 2 C-3 0 -3 0 0 0 Z " fill="#FBFBFB" transform="translate(261,197)"/>
<path d="M0 0 C0.99 0.33 1.98 0.66 3 1 C3 2.65 3 4.3 3 6 C0.69 5.67 -1.62 5.34 -4 5 C-3.01 4.67 -2.02 4.34 -1 4 C-0.26676204 1.98491642 -0.26676204 1.98491642 0 0 Z " fill="#CACACA" transform="translate(288,206)"/>
<path d="M0 0 C0.33 0.66 0.66 1.32 1 2 C2.32 1.67 3.64 1.34 5 1 C5 2.32 5 3.64 5 5 C3.35 5 1.7 5 0 5 C-0.5625 3.0625 -0.5625 3.0625 -1 1 C-0.67 0.67 -0.34 0.34 0 0 Z " fill="#DDDDDD" transform="translate(313,197)"/>
<path d="M0 0 C0.33 0 0.66 0 1 0 C1 2.97 1 5.94 1 9 C0.01 9 -0.98 9 -2 9 C-2.25 3.375 -2.25 3.375 0 0 Z " fill="#FBFBFB" transform="translate(360,182)"/>
<path d="M0 0 C0.8125 1.6875 0.8125 1.6875 1 4 C-1.4375 6.75 -1.4375 6.75 -4 9 C-4.66 8.67 -5.32 8.34 -6 8 C-4.26440562 4.942048 -2.61527381 2.36620011 0 0 Z " fill="#F9F9F9" transform="translate(136,180)"/>
<path d="M0 0 C0.66 1.32 1.32 2.64 2 4 C2.66 4 3.32 4 4 4 C4.33 2.68 4.66 1.36 5 0 C5 2.31 5 4.62 5 7 C4.01 7.495 4.01 7.495 3 8 C3 7.34 3 6.68 3 6 C1.68 6.33 0.36 6.66 -1 7 C-0.67 4.69 -0.34 2.38 0 0 Z " fill="#7A7A7A" transform="translate(411,173)"/>
<path d="M0 0 C2.31 0 4.62 0 7 0 C8.125 3.75 8.125 3.75 7 6 C6.34 6 5.68 6 5 6 C4.87625 5.071875 4.87625 5.071875 4.75 4.125 C4.18741541 1.81562433 4.18741541 1.81562433 1.9375 0.75 C1.298125 0.5025 0.65875 0.255 0 0 Z " fill="#828282" transform="translate(404,165)"/>
<path d="M0 0 C1.32 0.33 2.64 0.66 4 1 C3.67 2.65 3.34 4.3 3 6 C2.01 6 1.02 6 0 6 C-0.99 6.495 -0.99 6.495 -2 7 C-1.34 4.69 -0.68 2.38 0 0 Z " fill="#9E9E9E" transform="translate(160,108)"/>
<path d="M0 0 C0.99 0.33 1.98 0.66 3 1 C3.33 1.99 3.66 2.98 4 4 C2.576875 4.4640625 2.576875 4.4640625 1.125 4.9375 C-1.86080408 5.87394742 -1.86080408 5.87394742 -4 7 C-2.79618552 4.50638429 -1.54571278 2.31856917 0 0 Z " fill="#878787" transform="translate(110,231)"/>
<path d="M0 0 C-0.33 0.99 -0.66 1.98 -1 3 C-3.64 3 -6.28 3 -9 3 C-8 1 -8 1 -5.0625 -0.1875 C-2 -1 -2 -1 0 0 Z " fill="#FCFCFC" transform="translate(466,185)"/>
<path d="M0 0 C-0.33 0.66 -0.66 1.32 -1 2 C-4.0625 2.625 -4.0625 2.625 -7 3 C-7 2.01 -7 1.02 -7 0 C-3.86650268 -1.04449911 -3.01031744 -0.93423645 0 0 Z " fill="#FCFCFC" transform="translate(477,183)"/>
<path d="M0 0 C2.31 0 4.62 0 7 0 C6.01 1.485 6.01 1.485 5 3 C2.375 3.1875 2.375 3.1875 0 3 C0 2.01 0 1.02 0 0 Z " fill="#FBFBFB" transform="translate(127,220)"/>
<path d="M0 0 C-0.99 0.66 -1.98 1.32 -3 2 C-1.35 2.33 0.3 2.66 2 3 C2 3.33 2 3.66 2 4 C-0.31 4 -2.62 4 -5 4 C-5 3.34 -5 2.68 -5 2 C-6.32 1.67 -7.64 1.34 -9 1 C-5.92677456 0.08941469 -3.19902639 -0.08886184 0 0 Z " fill="#737373" transform="translate(431,204)"/>
<path d="M0 0 C0.66 0 1.32 0 2 0 C4 3 4 3 4 7 C3.01 6.67 2.02 6.34 1 6 C0.67 4.02 0.34 2.04 0 0 Z " fill="#F6F6F6" transform="translate(118,192)"/>
<path d="M0 0 C1.9453125 0.2421875 1.9453125 0.2421875 4.125 0.875 C4.84945313 1.07867187 5.57390625 1.28234375 6.3203125 1.4921875 C6.87460937 1.65976563 7.42890625 1.82734375 8 2 C6 3 4 4 2 5 C1.34 4.34 0.68 3.68 0 3 C-0.66 2.67 -1.32 2.34 -2 2 C-1.34 1.34 -0.68 0.68 0 0 Z " fill="#8B8B8B" transform="translate(317,196)"/>
<path d="M0 0 C0.99 0.33 1.98 0.66 3 1 C3.33 2.98 3.66 4.96 4 7 C3.01 6.67 2.02 6.34 1 6 C0.67 4.02 0.34 2.04 0 0 Z " fill="#F6F6F6" transform="translate(114,181)"/>
<path d="M0 0 C0 0.99 0 1.98 0 3 C-1.98 3.33 -3.96 3.66 -6 4 C-5.67 3.01 -5.34 2.02 -5 1 C-3 0 -3 0 0 0 Z " fill="#FAFAFA" transform="translate(299,229)"/>
<path d="M0 0 C0.99 1.32 1.98 2.64 3 4 C2.01 4.66 1.02 5.32 0 6 C-0.66 5.67 -1.32 5.34 -2 5 C-1.125 1.125 -1.125 1.125 0 0 Z " fill="#BDBDBD" transform="translate(113,228)"/>
<path d="M0 0 C-4.43076923 3.07692308 -4.43076923 3.07692308 -7.3125 2.6875 C-8.1478125 2.3471875 -8.1478125 2.3471875 -9 2 C-5.96271914 -1.03728086 -4.06215635 -1.35405212 0 0 Z " fill="#EFEFEF" transform="translate(405,210)"/>
</svg>
